<?xml version="1.0" encoding="UTF-8" standalone="no"?>
<!DOCTYPE svg PUBLIC "-//W3C//DTD SVG 1.1//EN"
 "http://www.w3.org/Graphics/SVG/1.1/DTD/svg11.dtd">
<!-- Generated by graphviz version 2.38.0 (20140413.2041)
 -->
<!-- Title: controllers_diagram Pages: 1 -->
<svg width="846pt" height="922pt"
 viewBox="0.00 0.00 845.81 921.91" xmlns="http://www.w3.org/2000/svg" xmlns:xlink="http://www.w3.org/1999/xlink">
<g id="graph0" class="graph" transform="scale(1 1) rotate(0) translate(403.122 492.631)">
<title>controllers_diagram</title>
<polygon fill="white" stroke="none" points="-403.122,429.275 -403.122,-492.631 442.689,-492.631 442.689,429.275 -403.122,429.275"/>
<!-- ApplicationController -->
<g id="node1" class="node"><title>ApplicationController</title>
<path fill="none" stroke="black" d="M-40.9818,60.9524C-40.9818,60.9524 74.6599,60.9524 74.6599,60.9524 80.6599,60.9524 86.6599,54.9524 86.6599,48.9524 86.6599,48.9524 86.6599,-87.0476 86.6599,-87.0476 86.6599,-93.0476 80.6599,-99.0476 74.6599,-99.0476 74.6599,-99.0476 -40.9818,-99.0476 -40.9818,-99.0476 -46.9818,-99.0476 -52.9818,-93.0476 -52.9818,-87.0476 -52.9818,-87.0476 -52.9818,48.9524 -52.9818,48.9524 -52.9818,54.9524 -46.9818,60.9524 -40.9818,60.9524"/>
<text text-anchor="middle" x="16.839" y="-83.8476" font-family="Times,serif" font-size="14.00">ApplicationController</text>
<polyline fill="none" stroke="black" points="-52.9818,-77.0476 86.6599,-77.0476 "/>
<polyline fill="none" stroke="black" points="-52.9818,-53.0476 86.6599,-53.0476 "/>
<text text-anchor="start" x="-44.9818" y="-37.8476" font-family="Times,serif" font-size="14.00">check_authentication</text>
<text text-anchor="start" x="-44.9818" y="-23.8476" font-family="Times,serif" font-size="14.00">create_record</text>
<text text-anchor="start" x="-44.9818" y="-9.84762" font-family="Times,serif" font-size="14.00">render_error</text>
<text text-anchor="start" x="-44.9818" y="4.15238" font-family="Times,serif" font-size="14.00">setup_current_user</text>
<text text-anchor="start" x="-44.9818" y="18.1524" font-family="Times,serif" font-size="14.00">setup_locale</text>
<text text-anchor="start" x="-44.9818" y="32.1524" font-family="Times,serif" font-size="14.00">update_record</text>
<polyline fill="none" stroke="black" points="-52.9818,38.9524 86.6599,38.9524 "/>
<text text-anchor="start" x="-44.9818" y="54.1524" font-family="Times,serif" font-size="14.00">_layout</text>
</g>
<!-- GameParticipationsController -->
<g id="node2" class="node"><title>GameParticipationsController</title>
<path fill="none" stroke="black" d="M221.512,-67.9383C221.512,-67.9383 420.299,-67.9383 420.299,-67.9383 426.299,-67.9383 432.299,-73.9383 432.299,-79.9383 432.299,-79.9383 432.299,-201.938 432.299,-201.938 432.299,-207.938 426.299,-213.938 420.299,-213.938 420.299,-213.938 221.512,-213.938 221.512,-213.938 215.512,-213.938 209.512,-207.938 209.512,-201.938 209.512,-201.938 209.512,-79.9383 209.512,-79.9383 209.512,-73.9383 215.512,-67.9383 221.512,-67.9383"/>
<text text-anchor="middle" x="320.905" y="-198.738" font-family="Times,serif" font-size="14.00">GameParticipationsController</text>
<polyline fill="none" stroke="black" points="209.512,-191.938 432.299,-191.938 "/>
<text text-anchor="start" x="217.512" y="-176.738" font-family="Times,serif" font-size="14.00">show</text>
<text text-anchor="start" x="217.512" y="-162.738" font-family="Times,serif" font-size="14.00">update</text>
<polyline fill="none" stroke="black" points="209.512,-155.938 432.299,-155.938 "/>
<polyline fill="none" stroke="black" points="209.512,-131.938 432.299,-131.938 "/>
<text text-anchor="start" x="217.512" y="-116.738" font-family="Times,serif" font-size="14.00">_layout</text>
<text text-anchor="start" x="217.512" y="-102.738" font-family="Times,serif" font-size="14.00">check_for_active_team</text>
<text text-anchor="start" x="217.512" y="-88.7383" font-family="Times,serif" font-size="14.00">create_team_and_team_participation</text>
<text text-anchor="start" x="217.512" y="-74.7383" font-family="Times,serif" font-size="14.00">game</text>
</g>
<!-- ApplicationController&#45;&gt;GameParticipationsController -->
<g id="edge1" class="edge"><title>ApplicationController&#45;&gt;GameParticipationsController</title>
<path fill="none" stroke="black" d="M86.9798,-47.1649C123.285,-61.7184 168.471,-79.8319 209.422,-96.2479"/>
</g>
<!-- GamesController -->
<g id="node3" class="node"><title>GamesController</title>
<path fill="none" stroke="black" d="M-125.205,348.519C-125.205,348.519 -36.7845,348.519 -36.7845,348.519 -30.7845,348.519 -24.7845,342.519 -24.7845,336.519 -24.7845,336.519 -24.7845,270.519 -24.7845,270.519 -24.7845,264.519 -30.7845,258.519 -36.7845,258.519 -36.7845,258.519 -125.205,258.519 -125.205,258.519 -131.205,258.519 -137.205,264.519 -137.205,270.519 -137.205,270.519 -137.205,336.519 -137.205,336.519 -137.205,342.519 -131.205,348.519 -125.205,348.519"/>
<text text-anchor="middle" x="-80.9949" y="273.719" font-family="Times,serif" font-size="14.00">GamesController</text>
<polyline fill="none" stroke="black" points="-137.205,280.519 -24.7845,280.519 "/>
<text text-anchor="start" x="-129.205" y="295.719" font-family="Times,serif" font-size="14.00">index</text>
<polyline fill="none" stroke="black" points="-137.205,302.519 -24.7845,302.519 "/>
<polyline fill="none" stroke="black" points="-137.205,326.519 -24.7845,326.519 "/>
<text text-anchor="start" x="-129.205" y="341.719" font-family="Times,serif" font-size="14.00">_layout</text>
</g>
<!-- ApplicationController&#45;&gt;GamesController -->
<g id="edge2" class="edge"><title>ApplicationController&#45;&gt;GamesController</title>
<path fill="none" stroke="black" d="M-7.47033,61.1025C-26.3153,123.236 -51.7485,207.092 -67.2286,258.131"/>
</g>
<!-- LocalesController -->
<g id="node4" class="node"><title>LocalesController</title>
<path fill="none" stroke="black" d="M-348.3,-340.424C-348.3,-340.424 -255.223,-340.424 -255.223,-340.424 -249.223,-340.424 -243.223,-346.424 -243.223,-352.424 -243.223,-352.424 -243.223,-418.424 -243.223,-418.424 -243.223,-424.424 -249.223,-430.424 -255.223,-430.424 -255.223,-430.424 -348.3,-430.424 -348.3,-430.424 -354.3,-430.424 -360.3,-424.424 -360.3,-418.424 -360.3,-418.424 -360.3,-352.424 -360.3,-352.424 -360.3,-346.424 -354.3,-340.424 -348.3,-340.424"/>
<text text-anchor="middle" x="-301.762" y="-415.224" font-family="Times,serif" font-size="14.00">LocalesController</text>
<polyline fill="none" stroke="black" points="-360.3,-408.424 -243.223,-408.424 "/>
<text text-anchor="start" x="-352.3" y="-393.224" font-family="Times,serif" font-size="14.00">update</text>
<polyline fill="none" stroke="black" points="-360.3,-386.424 -243.223,-386.424 "/>
<polyline fill="none" stroke="black" points="-360.3,-362.424 -243.223,-362.424 "/>
<text text-anchor="start" x="-352.3" y="-347.224" font-family="Times,serif" font-size="14.00">_layout</text>
</g>
<!-- ApplicationController&#45;&gt;LocalesController -->
<g id="edge3" class="edge"><title>ApplicationController&#45;&gt;LocalesController</title>
<path fill="none" stroke="black" d="M-53.0792,-99.4504C-117.373,-173.386 -210.389,-280.349 -262.529,-340.308"/>
</g>
<!-- Me::GameLevelPromptsController -->
<g id="node5" class="node"><title>Me::GameLevelPromptsController</title>
<path fill="none" stroke="black" d="M238.73,-286.131C238.73,-286.131 426.689,-286.131 426.689,-286.131 432.689,-286.131 438.689,-292.131 438.689,-298.131 438.689,-298.131 438.689,-476.131 438.689,-476.131 438.689,-482.131 432.689,-488.131 426.689,-488.131 426.689,-488.131 238.73,-488.131 238.73,-488.131 232.73,-488.131 226.73,-482.131 226.73,-476.131 226.73,-476.131 226.73,-298.131 226.73,-298.131 226.73,-292.131 232.73,-286.131 238.73,-286.131"/>
<text text-anchor="middle" x="332.709" y="-472.931" font-family="Times,serif" font-size="14.00">Me::GameLevelPromptsController</text>
<polyline fill="none" stroke="black" points="226.73,-466.131 438.689,-466.131 "/>
<text text-anchor="start" x="234.73" y="-450.931" font-family="Times,serif" font-size="14.00">create</text>
<text text-anchor="start" x="234.73" y="-436.931" font-family="Times,serif" font-size="14.00">destroy</text>
<text text-anchor="start" x="234.73" y="-422.931" font-family="Times,serif" font-size="14.00">edit</text>
<text text-anchor="start" x="234.73" y="-408.931" font-family="Times,serif" font-size="14.00">new</text>
<text text-anchor="start" x="234.73" y="-394.931" font-family="Times,serif" font-size="14.00">update</text>
<polyline fill="none" stroke="black" points="226.73,-388.131 438.689,-388.131 "/>
<polyline fill="none" stroke="black" points="226.73,-364.131 438.689,-364.131 "/>
<text text-anchor="start" x="234.73" y="-348.931" font-family="Times,serif" font-size="14.00">_layout</text>
<text text-anchor="start" x="234.73" y="-334.931" font-family="Times,serif" font-size="14.00">find_game_level_prompt</text>
<text text-anchor="start" x="234.73" y="-320.931" font-family="Times,serif" font-size="14.00">game</text>
<text text-anchor="start" x="234.73" y="-306.931" font-family="Times,serif" font-size="14.00">game_level</text>
<text text-anchor="start" x="234.73" y="-292.931" font-family="Times,serif" font-size="14.00">game_level_prompt_params</text>
</g>
<!-- ApplicationController&#45;&gt;Me::GameLevelPromptsController -->
<g id="edge4" class="edge"><title>ApplicationController&#45;&gt;Me::GameLevelPromptsController</title>
<path fill="none" stroke="black" d="M85.7678,-99.3703C132.783,-154.157 195.423,-227.151 245.849,-285.913"/>
</g>
<!-- Me::GameLevelsController -->
<g id="node6" class="node"><title>Me::GameLevelsController</title>
<path fill="none" stroke="black" d="M-58.3815,-237.165C-58.3815,-237.165 88.35,-237.165 88.35,-237.165 94.35,-237.165 100.35,-243.165 100.35,-249.165 100.35,-249.165 100.35,-441.165 100.35,-441.165 100.35,-447.165 94.35,-453.165 88.35,-453.165 88.35,-453.165 -58.3815,-453.165 -58.3815,-453.165 -64.3815,-453.165 -70.3815,-447.165 -70.3815,-441.165 -70.3815,-441.165 -70.3815,-249.165 -70.3815,-249.165 -70.3815,-243.165 -64.3815,-237.165 -58.3815,-237.165"/>
<text text-anchor="middle" x="14.9842" y="-437.965" font-family="Times,serif" font-size="14.00">Me::GameLevelsController</text>
<polyline fill="none" stroke="black" points="-70.3815,-431.165 100.35,-431.165 "/>
<text text-anchor="start" x="-62.3815" y="-415.965" font-family="Times,serif" font-size="14.00">create</text>
<text text-anchor="start" x="-62.3815" y="-401.965" font-family="Times,serif" font-size="14.00">destroy</text>
<text text-anchor="start" x="-62.3815" y="-387.965" font-family="Times,serif" font-size="14.00">edit</text>
<text text-anchor="start" x="-62.3815" y="-373.965" font-family="Times,serif" font-size="14.00">index</text>
<text text-anchor="start" x="-62.3815" y="-359.965" font-family="Times,serif" font-size="14.00">new</text>
<text text-anchor="start" x="-62.3815" y="-345.965" font-family="Times,serif" font-size="14.00">update</text>
<polyline fill="none" stroke="black" points="-70.3815,-339.165 100.35,-339.165 "/>
<polyline fill="none" stroke="black" points="-70.3815,-315.165 100.35,-315.165 "/>
<text text-anchor="start" x="-62.3815" y="-299.965" font-family="Times,serif" font-size="14.00">_layout</text>
<text text-anchor="start" x="-62.3815" y="-285.965" font-family="Times,serif" font-size="14.00">find_game_level</text>
<text text-anchor="start" x="-62.3815" y="-271.965" font-family="Times,serif" font-size="14.00">game</text>
<text text-anchor="start" x="-62.3815" y="-257.965" font-family="Times,serif" font-size="14.00">game_level_params</text>
<text text-anchor="start" x="-62.3815" y="-243.965" font-family="Times,serif" font-size="14.00">suggested_sort</text>
</g>
<!-- ApplicationController&#45;&gt;Me::GameLevelsController -->
<g id="edge5" class="edge"><title>ApplicationController&#45;&gt;Me::GameLevelsController</title>
<path fill="none" stroke="black" d="M16.3829,-99.2425C16.147,-140.733 15.8555,-191.973 15.5999,-236.923"/>
</g>
<!-- Me::GamesController -->
<g id="node7" class="node"><title>Me::GamesController</title>
<path fill="none" stroke="black" d="M-363.15,159.137C-363.15,159.137 -248.288,159.137 -248.288,159.137 -242.288,159.137 -236.288,153.137 -236.288,147.137 -236.288,147.137 -236.288,-2.86254 -236.288,-2.86254 -236.288,-8.86254 -242.288,-14.8625 -248.288,-14.8625 -248.288,-14.8625 -363.15,-14.8625 -363.15,-14.8625 -369.15,-14.8625 -375.15,-8.86254 -375.15,-2.86254 -375.15,-2.86254 -375.15,147.137 -375.15,147.137 -375.15,153.137 -369.15,159.137 -363.15,159.137"/>
<text text-anchor="middle" x="-305.719" y="0.337459" font-family="Times,serif" font-size="14.00">Me::GamesController</text>
<polyline fill="none" stroke="black" points="-375.15,7.13746 -236.288,7.13746 "/>
<text text-anchor="start" x="-367.15" y="22.3375" font-family="Times,serif" font-size="14.00">create</text>
<text text-anchor="start" x="-367.15" y="36.3375" font-family="Times,serif" font-size="14.00">destroy</text>
<text text-anchor="start" x="-367.15" y="50.3375" font-family="Times,serif" font-size="14.00">edit</text>
<text text-anchor="start" x="-367.15" y="64.3375" font-family="Times,serif" font-size="14.00">index</text>
<text text-anchor="start" x="-367.15" y="78.3375" font-family="Times,serif" font-size="14.00">new</text>
<text text-anchor="start" x="-367.15" y="92.3375" font-family="Times,serif" font-size="14.00">update</text>
<polyline fill="none" stroke="black" points="-375.15,99.1375 -236.288,99.1375 "/>
<polyline fill="none" stroke="black" points="-375.15,123.137 -236.288,123.137 "/>
<text text-anchor="start" x="-367.15" y="138.337" font-family="Times,serif" font-size="14.00">_layout</text>
<text text-anchor="start" x="-367.15" y="152.337" font-family="Times,serif" font-size="14.00">game_params</text>
</g>
<!-- ApplicationController&#45;&gt;Me::GamesController -->
<g id="edge6" class="edge"><title>ApplicationController&#45;&gt;Me::GamesController</title>
<path fill="none" stroke="black" d="M-53.1512,0.738186C-107.348,16.0592 -182.051,37.1774 -236.143,52.4687"/>
</g>
<!-- Me::TeamMembersController -->
<g id="node8" class="node"><title>Me::TeamMembersController</title>
<path fill="none" stroke="black" d="M258.869,128.083C258.869,128.083 418.623,128.083 418.623,128.083 424.623,128.083 430.623,122.083 430.623,116.083 430.623,116.083 430.623,22.0834 430.623,22.0834 430.623,16.0834 424.623,10.0834 418.623,10.0834 418.623,10.0834 258.869,10.0834 258.869,10.0834 252.869,10.0834 246.869,16.0834 246.869,22.0834 246.869,22.0834 246.869,116.083 246.869,116.083 246.869,122.083 252.869,128.083 258.869,128.083"/>
<text text-anchor="middle" x="338.746" y="25.2834" font-family="Times,serif" font-size="14.00">Me::TeamMembersController</text>
<polyline fill="none" stroke="black" points="246.869,32.0834 430.623,32.0834 "/>
<text text-anchor="start" x="254.869" y="47.2834" font-family="Times,serif" font-size="14.00">destroy</text>
<text text-anchor="start" x="254.869" y="61.2834" font-family="Times,serif" font-size="14.00">inactivate</text>
<text text-anchor="start" x="254.869" y="75.2834" font-family="Times,serif" font-size="14.00">update</text>
<polyline fill="none" stroke="black" points="246.869,82.0834 430.623,82.0834 "/>
<polyline fill="none" stroke="black" points="246.869,106.083 430.623,106.083 "/>
<text text-anchor="start" x="254.869" y="121.283" font-family="Times,serif" font-size="14.00">_layout</text>
</g>
<!-- ApplicationController&#45;&gt;Me::TeamMembersController -->
<g id="edge7" class="edge"><title>ApplicationController&#45;&gt;Me::TeamMembersController</title>
<path fill="none" stroke="black" d="M86.688,0.0755036C133.563,12.909 195.811,29.951 246.717,43.888"/>
</g>
<!-- Me::TeamsController -->
<g id="node9" class="node"><title>Me::TeamsController</title>
<path fill="none" stroke="black" d="M-387.122,424.775C-387.122,424.775 -274.796,424.775 -274.796,424.775 -268.796,424.775 -262.796,418.775 -262.796,412.775 -262.796,412.775 -262.796,262.775 -262.796,262.775 -262.796,256.775 -268.796,250.775 -274.796,250.775 -274.796,250.775 -387.122,250.775 -387.122,250.775 -393.122,250.775 -399.122,256.775 -399.122,262.775 -399.122,262.775 -399.122,412.775 -399.122,412.775 -399.122,418.775 -393.122,424.775 -387.122,424.775"/>
<text text-anchor="middle" x="-330.959" y="265.975" font-family="Times,serif" font-size="14.00">Me::TeamsController</text>
<polyline fill="none" stroke="black" points="-399.122,272.775 -262.796,272.775 "/>
<text text-anchor="start" x="-391.122" y="287.975" font-family="Times,serif" font-size="14.00">create</text>
<text text-anchor="start" x="-391.122" y="301.975" font-family="Times,serif" font-size="14.00">destroy</text>
<text text-anchor="start" x="-391.122" y="315.975" font-family="Times,serif" font-size="14.00">edit</text>
<text text-anchor="start" x="-391.122" y="329.975" font-family="Times,serif" font-size="14.00">index</text>
<text text-anchor="start" x="-391.122" y="343.975" font-family="Times,serif" font-size="14.00">new</text>
<text text-anchor="start" x="-391.122" y="357.975" font-family="Times,serif" font-size="14.00">update</text>
<polyline fill="none" stroke="black" points="-399.122,364.775 -262.796,364.775 "/>
<polyline fill="none" stroke="black" points="-399.122,388.775 -262.796,388.775 "/>
<text text-anchor="start" x="-391.122" y="403.975" font-family="Times,serif" font-size="14.00">_layout</text>
<text text-anchor="start" x="-391.122" y="417.975" font-family="Times,serif" font-size="14.00">team_params</text>
</g>
<!-- ApplicationController&#45;&gt;Me::TeamsController -->
<g id="edge8" class="edge"><title>ApplicationController&#45;&gt;Me::TeamsController</title>
<path fill="none" stroke="black" d="M-53.1247,52.7315C-114.122,115.311 -202.067,205.538 -262.589,267.63"/>
</g>
<!-- RequestsToJoinController -->
<g id="node10" class="node"><title>RequestsToJoinController</title>
<path fill="none" stroke="black" d="M47.1057,376.4C47.1057,376.4 185.114,376.4 185.114,376.4 191.114,376.4 197.114,370.4 197.114,364.4 197.114,364.4 197.114,242.4 197.114,242.4 197.114,236.4 191.114,230.4 185.114,230.4 185.114,230.4 47.1057,230.4 47.1057,230.4 41.1057,230.4 35.1057,236.4 35.1057,242.4 35.1057,242.4 35.1057,364.4 35.1057,364.4 35.1057,370.4 41.1057,376.4 47.1057,376.4"/>
<text text-anchor="middle" x="116.11" y="245.6" font-family="Times,serif" font-size="14.00">RequestsToJoinController</text>
<polyline fill="none" stroke="black" points="35.1057,252.4 197.114,252.4 "/>
<text text-anchor="start" x="43.1057" y="267.6" font-family="Times,serif" font-size="14.00">create</text>
<text text-anchor="start" x="43.1057" y="281.6" font-family="Times,serif" font-size="14.00">destroy</text>
<text text-anchor="start" x="43.1057" y="295.6" font-family="Times,serif" font-size="14.00">update</text>
<polyline fill="none" stroke="black" points="35.1057,302.4 197.114,302.4 "/>
<polyline fill="none" stroke="black" points="35.1057,326.4 197.114,326.4 "/>
<text text-anchor="start" x="43.1057" y="341.6" font-family="Times,serif" font-size="14.00">_layout</text>
<text text-anchor="start" x="43.1057" y="355.6" font-family="Times,serif" font-size="14.00">check_authorization</text>
<text text-anchor="start" x="43.1057" y="369.6" font-family="Times,serif" font-size="14.00">team</text>
</g>
<!-- ApplicationController&#45;&gt;RequestsToJoinController -->
<g id="edge9" class="edge"><title>ApplicationController&#45;&gt;RequestsToJoinController</title>
<path fill="none" stroke="black" d="M41.5055,61.0729C57.469,112.925 78.0917,179.911 93.6077,230.309"/>
</g>
<!-- TeamsController -->
<g id="node11" class="node"><title>TeamsController</title>
<path fill="none" stroke="black" d="M321.805,381.432C321.805,381.432 407.69,381.432 407.69,381.432 413.69,381.432 419.69,375.432 419.69,369.432 419.69,369.432 419.69,303.432 419.69,303.432 419.69,297.432 413.69,291.432 407.69,291.432 407.69,291.432 321.805,291.432 321.805,291.432 315.805,291.432 309.805,297.432 309.805,303.432 309.805,303.432 309.805,369.432 309.805,369.432 309.805,375.432 315.805,381.432 321.805,381.432"/>
<text text-anchor="middle" x="364.748" y="306.632" font-family="Times,serif" font-size="14.00">TeamsController</text>
<polyline fill="none" stroke="black" points="309.805,313.432 419.69,313.432 "/>
<text text-anchor="start" x="317.805" y="328.632" font-family="Times,serif" font-size="14.00">index</text>
<polyline fill="none" stroke="black" points="309.805,335.432 419.69,335.432 "/>
<polyline fill="none" stroke="black" points="309.805,359.432 419.69,359.432 "/>
<text text-anchor="start" x="317.805" y="374.632" font-family="Times,serif" font-size="14.00">_layout</text>
</g>
<!-- ApplicationController&#45;&gt;TeamsController -->
<g id="edge10" class="edge"><title>ApplicationController&#45;&gt;TeamsController</title>
<path fill="none" stroke="black" d="M86.8251,52.4613C156.572,123.726 261.542,230.98 320.5,291.221"/>
</g>
<!-- UsersController -->
<g id="node12" class="node"><title>UsersController</title>
<path fill="none" stroke="black" d="M-339.583,-36.4525C-339.583,-36.4525 -236.424,-36.4525 -236.424,-36.4525 -230.424,-36.4525 -224.424,-42.4525 -224.424,-48.4525 -224.424,-48.4525 -224.424,-226.453 -224.424,-226.453 -224.424,-232.453 -230.424,-238.453 -236.424,-238.453 -236.424,-238.453 -339.583,-238.453 -339.583,-238.453 -345.583,-238.453 -351.583,-232.453 -351.583,-226.453 -351.583,-226.453 -351.583,-48.4525 -351.583,-48.4525 -351.583,-42.4525 -345.583,-36.4525 -339.583,-36.4525"/>
<text text-anchor="middle" x="-288.004" y="-223.253" font-family="Times,serif" font-size="14.00">UsersController</text>
<polyline fill="none" stroke="black" points="-351.583,-216.453 -224.424,-216.453 "/>
<text text-anchor="start" x="-343.583" y="-201.253" font-family="Times,serif" font-size="14.00">create</text>
<text text-anchor="start" x="-343.583" y="-187.253" font-family="Times,serif" font-size="14.00">index</text>
<text text-anchor="start" x="-343.583" y="-173.253" font-family="Times,serif" font-size="14.00">login</text>
<text text-anchor="start" x="-343.583" y="-159.253" font-family="Times,serif" font-size="14.00">login_form</text>
<text text-anchor="start" x="-343.583" y="-145.253" font-family="Times,serif" font-size="14.00">logout</text>
<text text-anchor="start" x="-343.583" y="-131.253" font-family="Times,serif" font-size="14.00">new</text>
<text text-anchor="start" x="-343.583" y="-117.253" font-family="Times,serif" font-size="14.00">show</text>
<polyline fill="none" stroke="black" points="-351.583,-110.453 -224.424,-110.453 "/>
<polyline fill="none" stroke="black" points="-351.583,-86.4525 -224.424,-86.4525 "/>
<text text-anchor="start" x="-343.583" y="-71.2525" font-family="Times,serif" font-size="14.00">_layout</text>
<text text-anchor="start" x="-343.583" y="-57.2525" font-family="Times,serif" font-size="14.00">skip_if_logged</text>
<text text-anchor="start" x="-343.583" y="-43.2525" font-family="Times,serif" font-size="14.00">user_create_params</text>
</g>
<!-- ApplicationController&#45;&gt;UsersController -->
<g id="edge11" class="edge"><title>ApplicationController&#45;&gt;UsersController</title>
<path fill="none" stroke="black" d="M-53.098,-46.2121C-104.69,-66.251 -174.324,-93.2978 -224.362,-112.733"/>
</g>
</g>
</svg>
