<?xml version="1.0" encoding="UTF-8" standalone="no"?>
<!DOCTYPE svg PUBLIC "-//W3C//DTD SVG 1.1//EN"
 "http://www.w3.org/Graphics/SVG/1.1/DTD/svg11.dtd">
<!-- Generated by graphviz version 2.38.0 (20140413.2041)
 -->
<!-- Title: models_diagram Pages: 1 -->
<svg width="569pt" height="618pt"
 viewBox="0.00 0.00 568.84 618.00" xmlns="http://www.w3.org/2000/svg" xmlns:xlink="http://www.w3.org/1999/xlink">
<g id="graph0" class="graph" transform="scale(1 1) rotate(0) translate(4 614)">
<title>models_diagram</title>
<polygon fill="white" stroke="none" points="-4,4 -4,-614 564.842,-614 564.842,4 -4,4"/>
<!-- Game -->
<g id="node1" class="node"><title>Game</title>
<path fill="none" stroke="black" d="M145.831,-481.5C145.831,-481.5 254.842,-481.5 254.842,-481.5 260.842,-481.5 266.842,-487.5 266.842,-493.5 266.842,-493.5 266.842,-597.5 266.842,-597.5 266.842,-603.5 260.842,-609.5 254.842,-609.5 254.842,-609.5 145.831,-609.5 145.831,-609.5 139.831,-609.5 133.831,-603.5 133.831,-597.5 133.831,-597.5 133.831,-493.5 133.831,-493.5 133.831,-487.5 139.831,-481.5 145.831,-481.5"/>
<text text-anchor="middle" x="200.336" y="-594.3" font-family="Times,serif" font-size="14.00">Game</text>
<polyline fill="none" stroke="black" points="133.831,-587.5 266.842,-587.5 "/>
<text text-anchor="start" x="141.831" y="-572.3" font-family="Times,serif" font-size="14.00">id :integer</text>
<text text-anchor="start" x="141.831" y="-558.3" font-family="Times,serif" font-size="14.00">title :string</text>
<text text-anchor="start" x="141.831" y="-544.3" font-family="Times,serif" font-size="14.00">description :text</text>
<text text-anchor="start" x="141.831" y="-530.3" font-family="Times,serif" font-size="14.00">start :datetime</text>
<text text-anchor="start" x="141.831" y="-516.3" font-family="Times,serif" font-size="14.00">active :boolean</text>
<text text-anchor="start" x="141.831" y="-502.3" font-family="Times,serif" font-size="14.00">created_at :datetime</text>
<text text-anchor="start" x="141.831" y="-488.3" font-family="Times,serif" font-size="14.00">updated_at :datetime</text>
</g>
<!-- GameLevel -->
<g id="node2" class="node"><title>GameLevel</title>
<path fill="none" stroke="black" d="M38.1035,-323.5C38.1035,-323.5 124.569,-323.5 124.569,-323.5 130.569,-323.5 136.569,-329.5 136.569,-335.5 136.569,-335.5 136.569,-411.5 136.569,-411.5 136.569,-417.5 130.569,-423.5 124.569,-423.5 124.569,-423.5 38.1035,-423.5 38.1035,-423.5 32.1035,-423.5 26.1035,-417.5 26.1035,-411.5 26.1035,-411.5 26.1035,-335.5 26.1035,-335.5 26.1035,-329.5 32.1035,-323.5 38.1035,-323.5"/>
<text text-anchor="middle" x="81.3364" y="-408.3" font-family="Times,serif" font-size="14.00">GameLevel</text>
<polyline fill="none" stroke="black" points="26.1035,-401.5 136.569,-401.5 "/>
<text text-anchor="start" x="34.1035" y="-386.3" font-family="Times,serif" font-size="14.00">id :integer</text>
<text text-anchor="start" x="34.1035" y="-372.3" font-family="Times,serif" font-size="14.00">game_id :integer</text>
<text text-anchor="start" x="34.1035" y="-358.3" font-family="Times,serif" font-size="14.00">sort :integer</text>
<text text-anchor="start" x="34.1035" y="-344.3" font-family="Times,serif" font-size="14.00">description :text</text>
<text text-anchor="start" x="34.1035" y="-330.3" font-family="Times,serif" font-size="14.00">code :string</text>
</g>
<!-- Game&#45;&gt;GameLevel -->
<g id="edge3" class="edge"><title>Game&#45;&gt;GameLevel</title>
<path fill="none" stroke="#427b79" d="M134.318,-474.823C131.299,-470.902 128.4,-466.948 125.681,-463 119.198,-453.585 113.09,-443.088 107.6,-432.707"/>
<ellipse fill="none" stroke="#427b79" cx="137.021" cy="-478.245" rx="4.00002" ry="4.00002"/>
<polygon fill="#427b79" stroke="#427b79" points="107.513,-432.538 106.943,-421.587 105.227,-428.091 102.941,-423.644 102.941,-423.644 102.941,-423.644 105.227,-428.091 98.9388,-425.702 107.513,-432.538 107.513,-432.538"/>
<text text-anchor="middle" x="142.664" y="-451.8" font-family="Times,serif" font-size="14.00">levels</text>
</g>
<!-- TeamGameParticipation -->
<g id="node8" class="node"><title>TeamGameParticipation</title>
<path fill="none" stroke="black" d="M79.6792,-0.5C79.6792,-0.5 246.994,-0.5 246.994,-0.5 252.994,-0.5 258.994,-6.5 258.994,-12.5 258.994,-12.5 258.994,-102.5 258.994,-102.5 258.994,-108.5 252.994,-114.5 246.994,-114.5 246.994,-114.5 79.6792,-114.5 79.6792,-114.5 73.6792,-114.5 67.6792,-108.5 67.6792,-102.5 67.6792,-102.5 67.6792,-12.5 67.6792,-12.5 67.6792,-6.5 73.6792,-0.5 79.6792,-0.5"/>
<text text-anchor="middle" x="163.336" y="-99.3" font-family="Times,serif" font-size="14.00">TeamGameParticipation</text>
<polyline fill="none" stroke="black" points="67.6792,-92.5 258.994,-92.5 "/>
<text text-anchor="start" x="75.6792" y="-77.3" font-family="Times,serif" font-size="14.00">id :integer</text>
<text text-anchor="start" x="75.6792" y="-63.3" font-family="Times,serif" font-size="14.00">team_id :integer</text>
<text text-anchor="start" x="75.6792" y="-49.3" font-family="Times,serif" font-size="14.00">game_id :integer</text>
<text text-anchor="start" x="75.6792" y="-35.3" font-family="Times,serif" font-size="14.00">current_game_level_id :integer</text>
<text text-anchor="start" x="75.6792" y="-21.3" font-family="Times,serif" font-size="14.00">created_at :datetime</text>
<text text-anchor="start" x="75.6792" y="-7.3" font-family="Times,serif" font-size="14.00">updated_at :datetime</text>
</g>
<!-- Game&#45;&gt;TeamGameParticipation -->
<g id="edge1" class="edge"><title>Game&#45;&gt;TeamGameParticipation</title>
<path fill="none" stroke="#0af026" d="M194.926,-473.439C187.794,-379.753 175.339,-216.151 168.389,-124.871"/>
<ellipse fill="none" stroke="#0af026" cx="195.234" cy="-477.474" rx="4" ry="4"/>
<polygon fill="#0af026" stroke="#0af026" points="168.37,-124.618 172.098,-114.306 167.991,-119.633 167.611,-114.647 167.611,-114.647 167.611,-114.647 167.991,-119.633 163.124,-114.989 168.37,-124.618 168.37,-124.618"/>
<text text-anchor="middle" x="220.437" y="-286.8" font-family="Times,serif" font-size="14.00">participations</text>
</g>
<!-- User -->
<g id="node11" class="node"><title>User</title>
<path fill="none" stroke="black" d="M293.035,-316.5C293.035,-316.5 417.638,-316.5 417.638,-316.5 423.638,-316.5 429.638,-322.5 429.638,-328.5 429.638,-328.5 429.638,-418.5 429.638,-418.5 429.638,-424.5 423.638,-430.5 417.638,-430.5 417.638,-430.5 293.035,-430.5 293.035,-430.5 287.035,-430.5 281.035,-424.5 281.035,-418.5 281.035,-418.5 281.035,-328.5 281.035,-328.5 281.035,-322.5 287.035,-316.5 293.035,-316.5"/>
<text text-anchor="middle" x="355.336" y="-415.3" font-family="Times,serif" font-size="14.00">User</text>
<polyline fill="none" stroke="black" points="281.035,-408.5 429.638,-408.5 "/>
<text text-anchor="start" x="289.035" y="-393.3" font-family="Times,serif" font-size="14.00">id :integer</text>
<text text-anchor="start" x="289.035" y="-379.3" font-family="Times,serif" font-size="14.00">login :string</text>
<text text-anchor="start" x="289.035" y="-365.3" font-family="Times,serif" font-size="14.00">email :string</text>
<text text-anchor="start" x="289.035" y="-351.3" font-family="Times,serif" font-size="14.00">password_digest :string</text>
<text text-anchor="start" x="289.035" y="-337.3" font-family="Times,serif" font-size="14.00">created_at :datetime</text>
<text text-anchor="start" x="289.035" y="-323.3" font-family="Times,serif" font-size="14.00">updated_at :datetime</text>
</g>
<!-- Game&#45;&gt;User -->
<g id="edge2" class="edge"><title>Game&#45;&gt;User</title>
<path fill="none" stroke="#4214ad" d="M255.41,-473.581C262.476,-465.152 269.744,-456.785 276.902,-449 280.31,-445.293 283.865,-441.546 287.498,-437.806"/>
<polygon fill="#4214ad" stroke="#4214ad" points="255.372,-473.627 245.524,-478.451 252.18,-477.476 248.988,-481.324 248.988,-481.324 248.988,-481.324 252.18,-477.476 252.451,-484.197 255.372,-473.627 255.372,-473.627"/>
<polygon fill="#4214ad" stroke="#4214ad" points="287.543,-437.761 297.768,-433.798 291.053,-434.2 294.563,-430.639 294.563,-430.639 294.563,-430.639 291.053,-434.2 291.359,-427.48 287.543,-437.761 287.543,-437.761"/>
<text text-anchor="middle" x="297.554" y="-451.8" font-family="Times,serif" font-size="14.00">owners</text>
</g>
<!-- GameLevelPrompt -->
<g id="node4" class="node"><title>GameLevelPrompt</title>
<path fill="none" stroke="black" d="M12,-172.5C12,-172.5 132.673,-172.5 132.673,-172.5 138.673,-172.5 144.673,-178.5 144.673,-184.5 144.673,-184.5 144.673,-246.5 144.673,-246.5 144.673,-252.5 138.673,-258.5 132.673,-258.5 132.673,-258.5 12,-258.5 12,-258.5 6,-258.5 0,-252.5 0,-246.5 0,-246.5 0,-184.5 0,-184.5 0,-178.5 6,-172.5 12,-172.5"/>
<text text-anchor="middle" x="72.3364" y="-243.3" font-family="Times,serif" font-size="14.00">GameLevelPrompt</text>
<polyline fill="none" stroke="black" points="0,-236.5 144.673,-236.5 "/>
<text text-anchor="start" x="8" y="-221.3" font-family="Times,serif" font-size="14.00">id :integer</text>
<text text-anchor="start" x="8" y="-207.3" font-family="Times,serif" font-size="14.00">game_level_id :integer</text>
<text text-anchor="start" x="8" y="-193.3" font-family="Times,serif" font-size="14.00">description :text</text>
<text text-anchor="start" x="8" y="-179.3" font-family="Times,serif" font-size="14.00">appears_in :integer</text>
</g>
<!-- GameLevel&#45;&gt;GameLevelPrompt -->
<g id="edge4" class="edge"><title>GameLevel&#45;&gt;GameLevelPrompt</title>
<path fill="none" stroke="#701111" d="M78.0186,-314.991C77.1449,-299.847 76.2072,-283.593 75.3504,-268.742"/>
<ellipse fill="none" stroke="#701111" cx="78.2583" cy="-319.147" rx="4" ry="4"/>
<polygon fill="#701111" stroke="#701111" points="75.348,-268.699 79.2645,-258.457 75.06,-263.708 74.772,-258.716 74.772,-258.716 74.772,-258.716 75.06,-263.708 70.2794,-258.975 75.348,-268.699 75.348,-268.699"/>
<text text-anchor="middle" x="100.281" y="-286.8" font-family="Times,serif" font-size="14.00">prompts</text>
</g>
<!-- GameLevelCode -->
<g id="node3" class="node"><title>GameLevelCode</title>
<polygon fill="none" stroke="black" points="284.912,-523.5 284.912,-567.5 395.761,-567.5 395.761,-523.5 284.912,-523.5"/>
<text text-anchor="middle" x="340.336" y="-552.3" font-family="Times,serif" font-size="14.00">GameLevelCode</text>
<polyline fill="none" stroke="black" points="284.912,-545.5 395.761,-545.5 "/>
<text text-anchor="middle" x="340.336" y="-530.3" font-family="Times,serif" font-size="14.00"> </text>
</g>
<!-- GameOwner -->
<g id="node5" class="node"><title>GameOwner</title>
<path fill="none" stroke="black" d="M462.104,-179.5C462.104,-179.5 548.569,-179.5 548.569,-179.5 554.569,-179.5 560.569,-185.5 560.569,-191.5 560.569,-191.5 560.569,-239.5 560.569,-239.5 560.569,-245.5 554.569,-251.5 548.569,-251.5 548.569,-251.5 462.104,-251.5 462.104,-251.5 456.104,-251.5 450.104,-245.5 450.104,-239.5 450.104,-239.5 450.104,-191.5 450.104,-191.5 450.104,-185.5 456.104,-179.5 462.104,-179.5"/>
<text text-anchor="middle" x="505.336" y="-236.3" font-family="Times,serif" font-size="14.00">GameOwner</text>
<polyline fill="none" stroke="black" points="450.104,-229.5 560.569,-229.5 "/>
<text text-anchor="start" x="458.104" y="-214.3" font-family="Times,serif" font-size="14.00">id :integer</text>
<text text-anchor="start" x="458.104" y="-200.3" font-family="Times,serif" font-size="14.00">game_id :integer</text>
<text text-anchor="start" x="458.104" y="-186.3" font-family="Times,serif" font-size="14.00">user_id :integer</text>
</g>
<!-- Login -->
<g id="node6" class="node"><title>Login</title>
<polygon fill="none" stroke="black" points="413.336,-523.5 413.336,-567.5 467.336,-567.5 467.336,-523.5 413.336,-523.5"/>
<text text-anchor="middle" x="440.057" y="-552.3" font-family="Times,serif" font-size="14.00">Login</text>
<polyline fill="none" stroke="black" points="413.336,-545.5 466.778,-545.5 "/>
<text text-anchor="middle" x="440.057" y="-530.3" font-family="Times,serif" font-size="14.00"> </text>
</g>
<!-- Team -->
<g id="node7" class="node"><title>Team</title>
<path fill="none" stroke="black" d="M234.831,-165.5C234.831,-165.5 343.842,-165.5 343.842,-165.5 349.842,-165.5 355.842,-171.5 355.842,-177.5 355.842,-177.5 355.842,-253.5 355.842,-253.5 355.842,-259.5 349.842,-265.5 343.842,-265.5 343.842,-265.5 234.831,-265.5 234.831,-265.5 228.831,-265.5 222.831,-259.5 222.831,-253.5 222.831,-253.5 222.831,-177.5 222.831,-177.5 222.831,-171.5 228.831,-165.5 234.831,-165.5"/>
<text text-anchor="middle" x="289.336" y="-250.3" font-family="Times,serif" font-size="14.00">Team</text>
<polyline fill="none" stroke="black" points="222.831,-243.5 355.842,-243.5 "/>
<text text-anchor="start" x="230.831" y="-228.3" font-family="Times,serif" font-size="14.00">id :integer</text>
<text text-anchor="start" x="230.831" y="-214.3" font-family="Times,serif" font-size="14.00">owner_id :integer</text>
<text text-anchor="start" x="230.831" y="-200.3" font-family="Times,serif" font-size="14.00">name :string</text>
<text text-anchor="start" x="230.831" y="-186.3" font-family="Times,serif" font-size="14.00">created_at :datetime</text>
<text text-anchor="start" x="230.831" y="-172.3" font-family="Times,serif" font-size="14.00">updated_at :datetime</text>
</g>
<!-- Team&#45;&gt;TeamGameParticipation -->
<g id="edge8" class="edge"><title>Team&#45;&gt;TeamGameParticipation</title>
<path fill="none" stroke="#2f8882" d="M216.506,-162.272C211.588,-157.392 206.953,-152.284 202.819,-147 197.261,-139.897 192.299,-131.887 187.928,-123.663"/>
<ellipse fill="none" stroke="#2f8882" cx="219.504" cy="-165.132" rx="4.00002" ry="4.00002"/>
<polygon fill="#2f8882" stroke="#2f8882" points="187.907,-123.622 187.437,-112.666 185.662,-119.154 183.416,-114.687 183.416,-114.687 183.416,-114.687 185.662,-119.154 179.395,-116.708 187.907,-123.622 187.907,-123.622"/>
<text text-anchor="middle" x="260.095" y="-135.8" font-family="Times,serif" font-size="14.00">game_participations</text>
</g>
<!-- TeamInvitation -->
<g id="node9" class="node"><title>TeamInvitation</title>
<path fill="none" stroke="black" d="M288.831,-0.5C288.831,-0.5 397.842,-0.5 397.842,-0.5 403.842,-0.5 409.842,-6.5 409.842,-12.5 409.842,-12.5 409.842,-102.5 409.842,-102.5 409.842,-108.5 403.842,-114.5 397.842,-114.5 397.842,-114.5 288.831,-114.5 288.831,-114.5 282.831,-114.5 276.831,-108.5 276.831,-102.5 276.831,-102.5 276.831,-12.5 276.831,-12.5 276.831,-6.5 282.831,-0.5 288.831,-0.5"/>
<text text-anchor="middle" x="343.336" y="-99.3" font-family="Times,serif" font-size="14.00">TeamInvitation</text>
<polyline fill="none" stroke="black" points="276.831,-92.5 409.842,-92.5 "/>
<text text-anchor="start" x="284.831" y="-77.3" font-family="Times,serif" font-size="14.00">id :integer</text>
<text text-anchor="start" x="284.831" y="-63.3" font-family="Times,serif" font-size="14.00">user_id :integer</text>
<text text-anchor="start" x="284.831" y="-49.3" font-family="Times,serif" font-size="14.00">team_id :integer</text>
<text text-anchor="start" x="284.831" y="-35.3" font-family="Times,serif" font-size="14.00">type :integer</text>
<text text-anchor="start" x="284.831" y="-21.3" font-family="Times,serif" font-size="14.00">created_at :datetime</text>
<text text-anchor="start" x="284.831" y="-7.3" font-family="Times,serif" font-size="14.00">updated_at :datetime</text>
</g>
<!-- Team&#45;&gt;TeamInvitation -->
<g id="edge7" class="edge"><title>Team&#45;&gt;TeamInvitation</title>
<path fill="none" stroke="#88b205" d="M316.257,-157.746C317.703,-154.137 319.077,-150.534 320.336,-147 322.922,-139.745 325.354,-132.062 327.597,-124.372"/>
<ellipse fill="none" stroke="#88b205" cx="314.729" cy="-161.45" rx="4.00002" ry="4.00002"/>
<polygon fill="#88b205" stroke="#88b205" points="327.622,-124.286 334.667,-115.883 328.978,-119.474 330.335,-114.662 330.335,-114.662 330.335,-114.662 328.978,-119.474 326.004,-113.44 327.622,-124.286 327.622,-124.286"/>
</g>
<!-- TeamMember -->
<g id="node10" class="node"><title>TeamMember</title>
<path fill="none" stroke="black" d="M439.831,-0.5C439.831,-0.5 548.842,-0.5 548.842,-0.5 554.842,-0.5 560.842,-6.5 560.842,-12.5 560.842,-12.5 560.842,-102.5 560.842,-102.5 560.842,-108.5 554.842,-114.5 548.842,-114.5 548.842,-114.5 439.831,-114.5 439.831,-114.5 433.831,-114.5 427.831,-108.5 427.831,-102.5 427.831,-102.5 427.831,-12.5 427.831,-12.5 427.831,-6.5 433.831,-0.5 439.831,-0.5"/>
<text text-anchor="middle" x="494.336" y="-99.3" font-family="Times,serif" font-size="14.00">TeamMember</text>
<polyline fill="none" stroke="black" points="427.831,-92.5 560.842,-92.5 "/>
<text text-anchor="start" x="435.831" y="-77.3" font-family="Times,serif" font-size="14.00">id :integer</text>
<text text-anchor="start" x="435.831" y="-63.3" font-family="Times,serif" font-size="14.00">team_id :integer</text>
<text text-anchor="start" x="435.831" y="-49.3" font-family="Times,serif" font-size="14.00">user_id :integer</text>
<text text-anchor="start" x="435.831" y="-35.3" font-family="Times,serif" font-size="14.00">active :boolean</text>
<text text-anchor="start" x="435.831" y="-21.3" font-family="Times,serif" font-size="14.00">created_at :datetime</text>
<text text-anchor="start" x="435.831" y="-7.3" font-family="Times,serif" font-size="14.00">updated_at :datetime</text>
</g>
<!-- Team&#45;&gt;TeamMember -->
<g id="edge5" class="edge"><title>Team&#45;&gt;TeamMember</title>
<path fill="none" stroke="#1a2d34" d="M360.315,-160.487C379.412,-145.955 400.126,-130.192 419.429,-115.503"/>
<ellipse fill="none" stroke="#1a2d34" cx="357.101" cy="-162.932" rx="4.00002" ry="4.00002"/>
<polygon fill="#1a2d34" stroke="#1a2d34" points="419.648,-115.336 430.331,-112.861 423.627,-112.308 427.606,-109.28 427.606,-109.28 427.606,-109.28 423.627,-112.308 424.881,-105.699 419.648,-115.336 419.648,-115.336"/>
</g>
<!-- Team&#45;&gt;User -->
<g id="edge6" class="edge"><title>Team&#45;&gt;User</title>
<path fill="none" stroke="#dfb40a" d="M284.913,-275.815C285.764,-283.438 287.356,-291.013 290.019,-298 291.214,-301.134 292.605,-304.223 294.157,-307.256"/>
<polygon fill="#dfb40a" stroke="#dfb40a" points="284.911,-275.786 288.683,-265.489 284.553,-270.799 284.195,-265.812 284.195,-265.812 284.195,-265.812 284.553,-270.799 279.706,-266.134 284.911,-275.786 284.911,-275.786"/>
<polygon fill="#dfb40a" stroke="#dfb40a" points="294.291,-307.492 295.348,-318.406 296.773,-311.832 299.254,-316.173 299.254,-316.173 299.254,-316.173 296.773,-311.832 303.161,-313.939 294.291,-307.492 294.291,-307.492"/>
<text text-anchor="middle" x="315.995" y="-286.8" font-family="Times,serif" font-size="14.00">members</text>
</g>
<!-- User&#45;&gt;Game -->
<g id="edge10" class="edge"><title>User&#45;&gt;Game</title>
<path fill="none" stroke="#f0be64" d="M334.171,-439.792C329.538,-448.262 323.979,-456.304 317.336,-463 303.322,-477.129 293.252,-470.516 276.336,-481 276.145,-481.119 275.953,-481.238 275.761,-481.358"/>
<polygon fill="#f0be64" stroke="#f0be64" points="334.175,-439.784 342.689,-432.872 336.422,-435.317 338.669,-430.85 338.669,-430.85 338.669,-430.85 336.422,-435.317 334.648,-428.828 334.175,-439.784 334.175,-439.784"/>
<polygon fill="#f0be64" stroke="#f0be64" points="275.489,-481.536 264.66,-483.258 271.309,-484.278 267.128,-487.021 267.128,-487.021 267.128,-487.021 271.309,-484.278 269.596,-490.783 275.489,-481.536 275.489,-481.536"/>
</g>
<!-- User&#45;&gt;GameOwner -->
<g id="edge9" class="edge"><title>User&#45;&gt;GameOwner</title>
<path fill="none" stroke="#b6b339" d="M423.875,-310.603C428.147,-306.395 432.334,-302.17 436.336,-298 447.924,-285.926 459.919,-272.234 470.592,-259.566"/>
<ellipse fill="none" stroke="#b6b339" cx="420.869" cy="-313.532" rx="4.00002" ry="4.00002"/>
<polygon fill="#b6b339" stroke="#b6b339" points="470.641,-259.509 480.506,-254.72 473.846,-255.672 477.052,-251.835 477.052,-251.835 477.052,-251.835 473.846,-255.672 473.599,-248.949 470.641,-259.509 470.641,-259.509"/>
</g>
<!-- User&#45;&gt;Team -->
<g id="edge12" class="edge"><title>User&#45;&gt;Team</title>
<path fill="none" stroke="#a3c9c0" d="M348.555,-306.064C346.693,-298.462 344.331,-290.954 341.336,-284 339.949,-280.777 338.372,-277.573 336.652,-274.41"/>
<polygon fill="#a3c9c0" stroke="#a3c9c0" points="348.606,-306.298 346.327,-317.024 349.665,-311.184 350.725,-316.071 350.725,-316.071 350.725,-316.071 349.665,-311.184 355.123,-315.117 348.606,-306.298 348.606,-306.298"/>
<polygon fill="#a3c9c0" stroke="#a3c9c0" points="336.552,-274.24 335.345,-263.341 334.011,-269.934 331.469,-265.628 331.469,-265.628 331.469,-265.628 334.011,-269.934 327.594,-267.916 336.552,-274.24 336.552,-274.24"/>
</g>
<!-- User&#45;&gt;TeamInvitation -->
<g id="edge13" class="edge"><title>User&#45;&gt;TeamInvitation</title>
<path fill="none" stroke="#9cde43" d="M363.369,-308.423C367.298,-267.346 370.235,-212.932 365.336,-165 363.99,-151.829 361.731,-137.883 359.159,-124.574"/>
<ellipse fill="none" stroke="#9cde43" cx="362.967" cy="-312.474" rx="4" ry="4"/>
<polygon fill="#9cde43" stroke="#9cde43" points="359.114,-124.348 361.554,-113.657 358.128,-119.446 357.142,-114.544 357.142,-114.544 357.142,-114.544 358.128,-119.446 352.731,-115.431 359.114,-124.348 359.114,-124.348"/>
</g>
<!-- User&#45;&gt;TeamMember -->
<g id="edge11" class="edge"><title>User&#45;&gt;TeamMember</title>
<path fill="none" stroke="#65abd2" d="M380.504,-308.58C397.081,-267.301 419.655,-212.609 441.336,-165 447.456,-151.561 454.292,-137.322 460.967,-123.777"/>
<ellipse fill="none" stroke="#65abd2" cx="378.968" cy="-312.413" rx="4.00001" ry="4.00001"/>
<polygon fill="#65abd2" stroke="#65abd2" points="461.109,-123.489 469.582,-116.528 463.33,-119.009 465.551,-114.529 465.551,-114.529 465.551,-114.529 463.33,-119.009 461.519,-112.53 461.109,-123.489 461.109,-123.489"/>
</g>
</g>
</svg>
