<?xml version="1.0" encoding="UTF-8" standalone="no"?>
<!DOCTYPE svg PUBLIC "-//W3C//DTD SVG 1.1//EN"
 "http://www.w3.org/Graphics/SVG/1.1/DTD/svg11.dtd">
<!-- Generated by graphviz version 2.38.0 (20140413.2041)
 -->
<!-- Title: models_diagram Pages: 1 -->
<svg width="579pt" height="302pt"
 viewBox="0.00 0.00 578.68 302.00" xmlns="http://www.w3.org/2000/svg" xmlns:xlink="http://www.w3.org/1999/xlink">
<g id="graph0" class="graph" transform="scale(1 1) rotate(0) translate(4 298)">
<title>models_diagram</title>
<polygon fill="white" stroke="none" points="-4,4 -4,-298 574.683,-298 574.683,4 -4,4"/>
<!-- Game -->
<g id="node1" class="node"><title>Game</title>
<ellipse fill="none" stroke="black" cx="223.396" cy="-276" rx="31.4462" ry="18"/>
<text text-anchor="middle" x="223.396" y="-271.8" font-family="Times,serif" font-size="14.00">Game</text>
</g>
<!-- GameLevel -->
<g id="node2" class="node"><title>GameLevel</title>
<ellipse fill="none" stroke="black" cx="90.3958" cy="-190" rx="51.207" ry="18"/>
<text text-anchor="middle" x="90.3958" y="-185.8" font-family="Times,serif" font-size="14.00">GameLevel</text>
</g>
<!-- Game&#45;&gt;GameLevel -->
<g id="edge3" class="edge"><title>Game&#45;&gt;GameLevel</title>
<path fill="none" stroke="#9cc23b" d="M187.854,-264.834C171.167,-259.083 151.525,-250.845 135.74,-240 126.04,-233.335 116.9,-224.247 109.403,-215.708"/>
<ellipse fill="none" stroke="#9cc23b" cx="191.982" cy="-266.2" rx="4.00001" ry="4.00001"/>
<polygon fill="#9cc23b" stroke="#9cc23b" points="109.182,-215.445 106.2,-204.893 105.968,-211.616 102.753,-207.786 102.753,-207.786 102.753,-207.786 105.968,-211.616 99.3066,-210.679 109.182,-215.445 109.182,-215.445"/>
<text text-anchor="middle" x="152.723" y="-228.8" font-family="Times,serif" font-size="14.00">levels</text>
</g>
<!-- TeamGameParticipation -->
<g id="node8" class="node"><title>TeamGameParticipation</title>
<ellipse fill="none" stroke="black" cx="174.396" cy="-18" rx="95.8495" ry="18"/>
<text text-anchor="middle" x="174.396" y="-13.8" font-family="Times,serif" font-size="14.00">TeamGameParticipation</text>
</g>
<!-- Game&#45;&gt;TeamGameParticipation -->
<g id="edge1" class="edge"><title>Game&#45;&gt;TeamGameParticipation</title>
<path fill="none" stroke="#eef60c" d="M218.566,-249.769C209.307,-201.394 189.132,-95.9887 179.592,-46.1487"/>
<ellipse fill="none" stroke="#eef60c" cx="219.353" cy="-253.877" rx="4.00001" ry="4.00001"/>
<polygon fill="#eef60c" stroke="#eef60c" points="179.553,-45.9413 182.092,-35.2735 178.613,-41.0304 177.673,-36.1196 177.673,-36.1196 177.673,-36.1196 178.613,-41.0304 173.253,-36.9656 179.553,-45.9413 179.553,-45.9413"/>
<text text-anchor="middle" x="238.496" y="-142.8" font-family="Times,serif" font-size="14.00">participations</text>
</g>
<!-- User -->
<g id="node11" class="node"><title>User</title>
<ellipse fill="none" stroke="black" cx="369.396" cy="-190" rx="27" ry="18"/>
<text text-anchor="middle" x="369.396" y="-185.8" font-family="Times,serif" font-size="14.00">User</text>
</g>
<!-- Game&#45;&gt;User -->
<g id="edge2" class="edge"><title>Game&#45;&gt;User</title>
<path fill="none" stroke="#3c7ebc" d="M248.361,-254.593C260.489,-245.218 275.532,-234.354 289.961,-226 304.797,-217.411 322.131,-209.545 336.815,-203.455"/>
<polygon fill="#3c7ebc" stroke="#3c7ebc" points="248.334,-254.614 237.692,-257.26 244.404,-257.705 240.474,-260.797 240.474,-260.797 240.474,-260.797 244.404,-257.705 243.256,-264.334 248.334,-254.614 248.334,-254.614"/>
<polygon fill="#3c7ebc" stroke="#3c7ebc" points="337.225,-203.289 348.183,-203.706 341.86,-201.412 346.494,-199.535 346.494,-199.535 346.494,-199.535 341.86,-201.412 344.805,-195.364 337.225,-203.289 337.225,-203.289"/>
<text text-anchor="middle" x="310.613" y="-228.8" font-family="Times,serif" font-size="14.00">owners</text>
</g>
<!-- GameLevelPrompt -->
<g id="node4" class="node"><title>GameLevelPrompt</title>
<ellipse fill="none" stroke="black" cx="77.3958" cy="-104" rx="77.2916" ry="18"/>
<text text-anchor="middle" x="77.3958" y="-99.8" font-family="Times,serif" font-size="14.00">GameLevelPrompt</text>
</g>
<!-- GameLevel&#45;&gt;GameLevelPrompt -->
<g id="edge4" class="edge"><title>GameLevel&#45;&gt;GameLevelPrompt</title>
<path fill="none" stroke="#f6e0cc" d="M86.534,-164.047C84.9879,-154.057 83.202,-142.517 81.6214,-132.304"/>
<ellipse fill="none" stroke="#f6e0cc" cx="87.1532" cy="-168.048" rx="4.00001" ry="4.00001"/>
<polygon fill="#f6e0cc" stroke="#f6e0cc" points="81.5967,-132.144 84.5143,-121.573 80.832,-127.203 80.0672,-122.262 80.0672,-122.262 80.0672,-122.262 80.832,-127.203 75.6201,-122.95 81.5967,-132.144 81.5967,-132.144"/>
<text text-anchor="middle" x="108.341" y="-142.8" font-family="Times,serif" font-size="14.00">prompts</text>
</g>
<!-- GameLevelCode -->
<g id="node3" class="node"><title>GameLevelCode</title>
<polygon fill="none" stroke="black" points="383.744,-294 273.047,-294 273.047,-258 383.744,-258 383.744,-294"/>
<text text-anchor="middle" x="328.396" y="-271.8" font-family="Times,serif" font-size="14.00">GameLevelCode</text>
</g>
<!-- GameOwner -->
<g id="node5" class="node"><title>GameOwner</title>
<ellipse fill="none" stroke="black" cx="515.396" cy="-104" rx="55.075" ry="18"/>
<text text-anchor="middle" x="515.396" y="-99.8" font-family="Times,serif" font-size="14.00">GameOwner</text>
</g>
<!-- Login -->
<g id="node6" class="node"><title>Login</title>
<polygon fill="none" stroke="black" points="455.396,-294 401.396,-294 401.396,-258 455.396,-258 455.396,-294"/>
<text text-anchor="middle" x="428.396" y="-271.8" font-family="Times,serif" font-size="14.00">Login</text>
</g>
<!-- Team -->
<g id="node7" class="node"><title>Team</title>
<ellipse fill="none" stroke="black" cx="336.396" cy="-104" rx="29.7411" ry="18"/>
<text text-anchor="middle" x="336.396" y="-99.8" font-family="Times,serif" font-size="14.00">Team</text>
</g>
<!-- Team&#45;&gt;TeamGameParticipation -->
<g id="edge8" class="edge"><title>Team&#45;&gt;TeamGameParticipation</title>
<path fill="none" stroke="#46cee9" d="M300.556,-95.7861C278.319,-90.3083 249.73,-81.3957 226.878,-68 215.733,-61.4665 205.01,-52.192 196.194,-43.4667"/>
<ellipse fill="none" stroke="#46cee9" cx="304.547" cy="-96.73" rx="4.00001" ry="4.00001"/>
<polygon fill="#46cee9" stroke="#46cee9" points="195.937,-43.2017 192.205,-32.8903 192.456,-39.6124 188.975,-36.0231 188.975,-36.0231 188.975,-36.0231 192.456,-39.6124 185.745,-39.156 195.937,-43.2017 195.937,-43.2017"/>
<text text-anchor="middle" x="284.155" y="-56.8" font-family="Times,serif" font-size="14.00">game_participations</text>
</g>
<!-- TeamInvitation -->
<g id="node9" class="node"><title>TeamInvitation</title>
<ellipse fill="none" stroke="black" cx="352.396" cy="-18" rx="64.0107" ry="18"/>
<text text-anchor="middle" x="352.396" y="-13.8" font-family="Times,serif" font-size="14.00">TeamInvitation</text>
</g>
<!-- Team&#45;&gt;TeamInvitation -->
<g id="edge7" class="edge"><title>Team&#45;&gt;TeamInvitation</title>
<path fill="none" stroke="#347cde" d="M341.149,-78.0469C343.052,-68.0569 345.25,-56.5171 347.195,-46.304"/>
<ellipse fill="none" stroke="#347cde" cx="340.382" cy="-82.072" rx="4.00001" ry="4.00001"/>
<polygon fill="#347cde" stroke="#347cde" points="347.237,-46.0851 353.528,-37.1037 348.172,-41.1734 349.108,-36.2617 349.108,-36.2617 349.108,-36.2617 348.172,-41.1734 344.687,-35.4196 347.237,-46.0851 347.237,-46.0851"/>
</g>
<!-- TeamMember -->
<g id="node10" class="node"><title>TeamMember</title>
<ellipse fill="none" stroke="black" cx="494.396" cy="-18" rx="59.6587" ry="18"/>
<text text-anchor="middle" x="494.396" y="-13.8" font-family="Times,serif" font-size="14.00">TeamMember</text>
</g>
<!-- Team&#45;&gt;TeamMember -->
<g id="edge5" class="edge"><title>Team&#45;&gt;TeamMember</title>
<path fill="none" stroke="#75ba69" d="M363.185,-86.0025C379.007,-76.2142 399.567,-63.925 418.396,-54 429.238,-48.2848 441.19,-42.5349 452.341,-37.394"/>
<ellipse fill="none" stroke="#75ba69" cx="359.667" cy="-88.1923" rx="4.00002" ry="4.00002"/>
<polygon fill="#75ba69" stroke="#75ba69" points="452.377,-37.3776 463.343,-37.3284 456.927,-35.3053 461.478,-33.2331 461.478,-33.2331 461.478,-33.2331 456.927,-35.3053 459.613,-29.1377 452.377,-37.3776 452.377,-37.3776"/>
</g>
<!-- Team&#45;&gt;User -->
<g id="edge6" class="edge"><title>Team&#45;&gt;User</title>
<path fill="none" stroke="#3b000e" d="M310.871,-125.66C303.319,-134.308 298.41,-144.532 304.078,-154 310.961,-165.497 323.056,-173.432 334.982,-178.801"/>
<polygon fill="#3b000e" stroke="#3b000e" points="310.926,-125.604 321.175,-121.703 314.457,-122.065 317.989,-118.525 317.989,-118.525 317.989,-118.525 314.457,-122.065 314.803,-115.347 310.926,-125.604 310.926,-125.604"/>
<polygon fill="#3b000e" stroke="#3b000e" points="335.124,-178.858 342.734,-186.753 339.766,-180.717 344.407,-182.576 344.407,-182.576 344.407,-182.576 339.766,-180.717 346.08,-178.398 335.124,-178.858 335.124,-178.858"/>
<text text-anchor="middle" x="330.054" y="-142.8" font-family="Times,serif" font-size="14.00">members</text>
</g>
<!-- User&#45;&gt;Game -->
<g id="edge10" class="edge"><title>User&#45;&gt;Game</title>
<path fill="none" stroke="#9d9f88" d="M354.37,-215.859C347.967,-224.616 339.794,-233.81 330.396,-240 305.003,-256.723 293.163,-248.157 264.396,-258 261.972,-258.829 259.485,-259.73 256.994,-260.67"/>
<polygon fill="#9d9f88" stroke="#9d9f88" points="354.525,-215.633 363.88,-209.912 357.344,-211.504 360.163,-207.375 360.163,-207.375 360.163,-207.375 357.344,-211.504 356.447,-204.837 354.525,-215.633 354.525,-215.633"/>
<polygon fill="#9d9f88" stroke="#9d9f88" points="256.787,-260.751 245.833,-260.23 252.135,-262.584 247.483,-264.417 247.483,-264.417 247.483,-264.417 252.135,-262.584 249.132,-268.604 256.787,-260.751 256.787,-260.751"/>
</g>
<!-- User&#45;&gt;GameOwner -->
<g id="edge9" class="edge"><title>User&#45;&gt;GameOwner</title>
<path fill="none" stroke="#e01497" d="M399.884,-176.737C414.307,-170.537 431.575,-162.526 446.396,-154 460.365,-145.964 475.031,-135.818 487.232,-126.846"/>
<ellipse fill="none" stroke="#e01497" cx="395.882" cy="-178.43" rx="4.00001" ry="4.00001"/>
<polygon fill="#e01497" stroke="#e01497" points="487.233,-126.846 497.938,-124.469 491.239,-123.854 495.246,-120.863 495.246,-120.863 495.246,-120.863 491.239,-123.854 492.554,-117.257 487.233,-126.846 487.233,-126.846"/>
</g>
<!-- User&#45;&gt;Team -->
<g id="edge12" class="edge"><title>User&#45;&gt;Team</title>
<path fill="none" stroke="#0bc0ae" d="M362.855,-162.101C360.776,-154.819 358.261,-147.014 355.396,-140 354.048,-136.7 352.472,-133.309 350.814,-129.998"/>
<polygon fill="#0bc0ae" stroke="#0bc0ae" points="362.895,-162.253 361.148,-173.078 364.194,-167.081 365.493,-171.909 365.493,-171.909 365.493,-171.909 364.194,-167.081 369.839,-170.74 362.895,-162.253 362.895,-162.253"/>
<polygon fill="#0bc0ae" stroke="#0bc0ae" points="350.738,-129.854 350.025,-118.911 348.394,-125.437 346.05,-121.02 346.05,-121.02 346.05,-121.02 348.394,-125.437 342.075,-123.13 350.738,-129.854 350.738,-129.854"/>
</g>
<!-- User&#45;&gt;TeamInvitation -->
<g id="edge13" class="edge"><title>User&#45;&gt;TeamInvitation</title>
<path fill="none" stroke="#996e15" d="M373.941,-164.032C377.02,-143.069 379.801,-112.398 375.396,-86 373.103,-72.2584 368.335,-57.5589 363.733,-45.4401"/>
<ellipse fill="none" stroke="#996e15" cx="373.291" cy="-168.156" rx="4.00001" ry="4.00001"/>
<polygon fill="#996e15" stroke="#996e15" points="363.653,-45.2392 364.145,-34.2843 361.808,-40.592 359.963,-35.9449 359.963,-35.9449 359.963,-35.9449 361.808,-40.592 355.78,-37.6054 363.653,-45.2392 363.653,-45.2392"/>
</g>
<!-- User&#45;&gt;TeamMember -->
<g id="edge11" class="edge"><title>User&#45;&gt;TeamMember</title>
<path fill="none" stroke="#ca58db" d="M385.761,-166.743C409.066,-135.048 451.682,-77.091 476.035,-43.9705"/>
<ellipse fill="none" stroke="#ca58db" cx="383.079" cy="-170.391" rx="4.00002" ry="4.00002"/>
<polygon fill="#ca58db" stroke="#ca58db" points="476.176,-43.7794 485.725,-38.3887 479.138,-39.7511 482.1,-35.7229 482.1,-35.7229 482.1,-35.7229 479.138,-39.7511 478.474,-33.0571 476.176,-43.7794 476.176,-43.7794"/>
</g>
</g>
</svg>
