<?xml version="1.0" encoding="UTF-8" standalone="no"?>
<!DOCTYPE svg PUBLIC "-//W3C//DTD SVG 1.1//EN"
 "http://www.w3.org/Graphics/SVG/1.1/DTD/svg11.dtd">
<!-- Generated by graphviz version 2.38.0 (20140413.2041)
 -->
<!-- Title: models_diagram Pages: 1 -->
<svg width="753pt" height="618pt"
 viewBox="0.00 0.00 753.36 618.00" xmlns="http://www.w3.org/2000/svg" xmlns:xlink="http://www.w3.org/1999/xlink">
<g id="graph0" class="graph" transform="scale(1 1) rotate(0) translate(4 614)">
<title>models_diagram</title>
<polygon fill="white" stroke="none" points="-4,4 -4,-614 749.361,-614 749.361,4 -4,4"/>
<!-- Game -->
<g id="node1" class="node"><title>Game</title>
<path fill="none" stroke="black" d="M383.198,-481.5C383.198,-481.5 492.209,-481.5 492.209,-481.5 498.209,-481.5 504.209,-487.5 504.209,-493.5 504.209,-493.5 504.209,-597.5 504.209,-597.5 504.209,-603.5 498.209,-609.5 492.209,-609.5 492.209,-609.5 383.198,-609.5 383.198,-609.5 377.198,-609.5 371.198,-603.5 371.198,-597.5 371.198,-597.5 371.198,-493.5 371.198,-493.5 371.198,-487.5 377.198,-481.5 383.198,-481.5"/>
<text text-anchor="middle" x="437.704" y="-594.3" font-family="Times,serif" font-size="14.00">Game</text>
<polyline fill="none" stroke="black" points="371.198,-587.5 504.209,-587.5 "/>
<text text-anchor="start" x="379.198" y="-572.3" font-family="Times,serif" font-size="14.00">id :integer</text>
<text text-anchor="start" x="379.198" y="-558.3" font-family="Times,serif" font-size="14.00">title :string</text>
<text text-anchor="start" x="379.198" y="-544.3" font-family="Times,serif" font-size="14.00">description :text</text>
<text text-anchor="start" x="379.198" y="-530.3" font-family="Times,serif" font-size="14.00">start :datetime</text>
<text text-anchor="start" x="379.198" y="-516.3" font-family="Times,serif" font-size="14.00">active :boolean</text>
<text text-anchor="start" x="379.198" y="-502.3" font-family="Times,serif" font-size="14.00">created_at :datetime</text>
<text text-anchor="start" x="379.198" y="-488.3" font-family="Times,serif" font-size="14.00">updated_at :datetime</text>
</g>
<!-- GameLevel -->
<g id="node2" class="node"><title>GameLevel</title>
<path fill="none" stroke="black" d="M138.471,-323.5C138.471,-323.5 224.937,-323.5 224.937,-323.5 230.937,-323.5 236.937,-329.5 236.937,-335.5 236.937,-335.5 236.937,-411.5 236.937,-411.5 236.937,-417.5 230.937,-423.5 224.937,-423.5 224.937,-423.5 138.471,-423.5 138.471,-423.5 132.471,-423.5 126.471,-417.5 126.471,-411.5 126.471,-411.5 126.471,-335.5 126.471,-335.5 126.471,-329.5 132.471,-323.5 138.471,-323.5"/>
<text text-anchor="middle" x="181.704" y="-408.3" font-family="Times,serif" font-size="14.00">GameLevel</text>
<polyline fill="none" stroke="black" points="126.471,-401.5 236.937,-401.5 "/>
<text text-anchor="start" x="134.471" y="-386.3" font-family="Times,serif" font-size="14.00">id :integer</text>
<text text-anchor="start" x="134.471" y="-372.3" font-family="Times,serif" font-size="14.00">game_id :integer</text>
<text text-anchor="start" x="134.471" y="-358.3" font-family="Times,serif" font-size="14.00">sort :integer</text>
<text text-anchor="start" x="134.471" y="-344.3" font-family="Times,serif" font-size="14.00">description :text</text>
<text text-anchor="start" x="134.471" y="-330.3" font-family="Times,serif" font-size="14.00">code :string</text>
</g>
<!-- Game&#45;&gt;GameLevel -->
<g id="edge3" class="edge"><title>Game&#45;&gt;GameLevel</title>
<path fill="none" stroke="#8f0891" d="M364.434,-495.844C326.937,-470.944 281.72,-440.917 245.648,-416.963"/>
<ellipse fill="none" stroke="#8f0891" cx="367.779" cy="-498.065" rx="4.00002" ry="4.00002"/>
<polygon fill="#8f0891" stroke="#8f0891" points="245.487,-416.856 239.646,-407.576 241.322,-414.09 237.157,-411.324 237.157,-411.324 237.157,-411.324 241.322,-414.09 234.668,-415.073 245.487,-416.856 245.487,-416.856"/>
<text text-anchor="middle" x="326.031" y="-451.8" font-family="Times,serif" font-size="14.00">levels</text>
</g>
<!-- TeamGameParticipation -->
<g id="node9" class="node"><title>TeamGameParticipation</title>
<path fill="none" stroke="black" d="M566.046,-0.5C566.046,-0.5 733.361,-0.5 733.361,-0.5 739.361,-0.5 745.361,-6.5 745.361,-12.5 745.361,-12.5 745.361,-102.5 745.361,-102.5 745.361,-108.5 739.361,-114.5 733.361,-114.5 733.361,-114.5 566.046,-114.5 566.046,-114.5 560.046,-114.5 554.046,-108.5 554.046,-102.5 554.046,-102.5 554.046,-12.5 554.046,-12.5 554.046,-6.5 560.046,-0.5 566.046,-0.5"/>
<text text-anchor="middle" x="649.704" y="-99.3" font-family="Times,serif" font-size="14.00">TeamGameParticipation</text>
<polyline fill="none" stroke="black" points="554.046,-92.5 745.361,-92.5 "/>
<text text-anchor="start" x="562.046" y="-77.3" font-family="Times,serif" font-size="14.00">id :integer</text>
<text text-anchor="start" x="562.046" y="-63.3" font-family="Times,serif" font-size="14.00">team_id :integer</text>
<text text-anchor="start" x="562.046" y="-49.3" font-family="Times,serif" font-size="14.00">game_id :integer</text>
<text text-anchor="start" x="562.046" y="-35.3" font-family="Times,serif" font-size="14.00">current_game_level_id :integer</text>
<text text-anchor="start" x="562.046" y="-21.3" font-family="Times,serif" font-size="14.00">created_at :datetime</text>
<text text-anchor="start" x="562.046" y="-7.3" font-family="Times,serif" font-size="14.00">updated_at :datetime</text>
</g>
<!-- Game&#45;&gt;TeamGameParticipation -->
<g id="edge1" class="edge"><title>Game&#45;&gt;TeamGameParticipation</title>
<path fill="none" stroke="#1068ce" d="M492.417,-474.462C502.598,-460.37 512.816,-445.444 521.704,-431 564.722,-361.086 577.342,-343.395 604.704,-266 620.992,-219.927 632.478,-165.927 639.767,-124.565"/>
<ellipse fill="none" stroke="#1068ce" cx="489.784" cy="-478.075" rx="4.00002" ry="4.00002"/>
<polygon fill="#1068ce" stroke="#1068ce" points="639.786,-124.458 645.92,-115.368 640.636,-119.531 641.485,-114.603 641.485,-114.603 641.485,-114.603 640.636,-119.531 637.051,-113.839 639.786,-124.458 639.786,-124.458"/>
<text text-anchor="middle" x="635.804" y="-286.8" font-family="Times,serif" font-size="14.00">participations</text>
</g>
<!-- User -->
<g id="node12" class="node"><title>User</title>
<path fill="none" stroke="black" d="M376.402,-316.5C376.402,-316.5 501.005,-316.5 501.005,-316.5 507.005,-316.5 513.005,-322.5 513.005,-328.5 513.005,-328.5 513.005,-418.5 513.005,-418.5 513.005,-424.5 507.005,-430.5 501.005,-430.5 501.005,-430.5 376.402,-430.5 376.402,-430.5 370.402,-430.5 364.402,-424.5 364.402,-418.5 364.402,-418.5 364.402,-328.5 364.402,-328.5 364.402,-322.5 370.402,-316.5 376.402,-316.5"/>
<text text-anchor="middle" x="438.704" y="-415.3" font-family="Times,serif" font-size="14.00">User</text>
<polyline fill="none" stroke="black" points="364.402,-408.5 513.005,-408.5 "/>
<text text-anchor="start" x="372.402" y="-393.3" font-family="Times,serif" font-size="14.00">id :integer</text>
<text text-anchor="start" x="372.402" y="-379.3" font-family="Times,serif" font-size="14.00">login :string</text>
<text text-anchor="start" x="372.402" y="-365.3" font-family="Times,serif" font-size="14.00">email :string</text>
<text text-anchor="start" x="372.402" y="-351.3" font-family="Times,serif" font-size="14.00">password_digest :string</text>
<text text-anchor="start" x="372.402" y="-337.3" font-family="Times,serif" font-size="14.00">created_at :datetime</text>
<text text-anchor="start" x="372.402" y="-323.3" font-family="Times,serif" font-size="14.00">updated_at :datetime</text>
</g>
<!-- Game&#45;&gt;User -->
<g id="edge2" class="edge"><title>Game&#45;&gt;User</title>
<path fill="none" stroke="#a7ea39" d="M410.558,-471.286C409.855,-463.802 409.972,-456.277 411.269,-449 411.751,-446.295 412.325,-443.559 412.973,-440.814"/>
<polygon fill="#a7ea39" stroke="#a7ea39" points="410.594,-471.538 407.536,-482.069 411.293,-476.489 411.992,-481.44 411.992,-481.44 411.992,-481.44 411.293,-476.489 416.448,-480.811 410.594,-471.538 410.594,-471.538"/>
<polygon fill="#a7ea39" stroke="#a7ea39" points="413.046,-440.536 419.961,-432.025 414.329,-435.703 415.612,-430.871 415.612,-430.871 415.612,-430.871 414.329,-435.703 411.262,-429.716 413.046,-440.536 413.046,-440.536"/>
<text text-anchor="middle" x="431.921" y="-451.8" font-family="Times,serif" font-size="14.00">owners</text>
</g>
<!-- GameLevelCompletion -->
<g id="node4" class="node"><title>GameLevelCompletion</title>
<path fill="none" stroke="black" d="M12,-7.5C12,-7.5 135.407,-7.5 135.407,-7.5 141.407,-7.5 147.407,-13.5 147.407,-19.5 147.407,-19.5 147.407,-95.5 147.407,-95.5 147.407,-101.5 141.407,-107.5 135.407,-107.5 135.407,-107.5 12,-107.5 12,-107.5 6,-107.5 0,-101.5 0,-95.5 0,-95.5 0,-19.5 0,-19.5 0,-13.5 6,-7.5 12,-7.5"/>
<text text-anchor="middle" x="73.7036" y="-92.3" font-family="Times,serif" font-size="14.00">GameLevelCompletion</text>
<polyline fill="none" stroke="black" points="0,-85.5 147.407,-85.5 "/>
<text text-anchor="start" x="8" y="-70.3" font-family="Times,serif" font-size="14.00">id :integer</text>
<text text-anchor="start" x="8" y="-56.3" font-family="Times,serif" font-size="14.00">team_id :integer</text>
<text text-anchor="start" x="8" y="-42.3" font-family="Times,serif" font-size="14.00">game_level_id :integer</text>
<text text-anchor="start" x="8" y="-28.3" font-family="Times,serif" font-size="14.00">started_at :datetime</text>
<text text-anchor="start" x="8" y="-14.3" font-family="Times,serif" font-size="14.00">finished_at :datetime</text>
</g>
<!-- GameLevel&#45;&gt;GameLevelCompletion -->
<g id="edge5" class="edge"><title>GameLevel&#45;&gt;GameLevelCompletion</title>
<path fill="none" stroke="#6fa02c" d="M119.081,-345.4C86.8586,-327.833 50.5839,-301.543 32.269,-266 8.20558,-219.301 23.9567,-160.024 42.5492,-116.795"/>
<ellipse fill="none" stroke="#6fa02c" cx="122.779" cy="-347.362" rx="4.00002" ry="4.00002"/>
<polygon fill="#6fa02c" stroke="#6fa02c" points="42.5994,-116.682 50.7828,-109.383 44.6363,-112.116 46.6731,-107.549 46.6731,-107.549 46.6731,-107.549 44.6363,-112.116 42.5634,-105.716 42.5994,-116.682 42.5994,-116.682"/>
<text text-anchor="middle" x="66.9209" y="-211.3" font-family="Times,serif" font-size="14.00">completions</text>
</g>
<!-- GameLevelPrompt -->
<g id="node5" class="node"><title>GameLevelPrompt</title>
<path fill="none" stroke="black" d="M121.367,-172.5C121.367,-172.5 242.04,-172.5 242.04,-172.5 248.04,-172.5 254.04,-178.5 254.04,-184.5 254.04,-184.5 254.04,-246.5 254.04,-246.5 254.04,-252.5 248.04,-258.5 242.04,-258.5 242.04,-258.5 121.367,-258.5 121.367,-258.5 115.367,-258.5 109.367,-252.5 109.367,-246.5 109.367,-246.5 109.367,-184.5 109.367,-184.5 109.367,-178.5 115.367,-172.5 121.367,-172.5"/>
<text text-anchor="middle" x="181.704" y="-243.3" font-family="Times,serif" font-size="14.00">GameLevelPrompt</text>
<polyline fill="none" stroke="black" points="109.367,-236.5 254.04,-236.5 "/>
<text text-anchor="start" x="117.367" y="-221.3" font-family="Times,serif" font-size="14.00">id :integer</text>
<text text-anchor="start" x="117.367" y="-207.3" font-family="Times,serif" font-size="14.00">game_level_id :integer</text>
<text text-anchor="start" x="117.367" y="-193.3" font-family="Times,serif" font-size="14.00">description :text</text>
<text text-anchor="start" x="117.367" y="-179.3" font-family="Times,serif" font-size="14.00">appears_in :integer</text>
</g>
<!-- GameLevel&#45;&gt;GameLevelPrompt -->
<g id="edge4" class="edge"><title>GameLevel&#45;&gt;GameLevelPrompt</title>
<path fill="none" stroke="#a419ea" d="M181.704,-314.991C181.704,-299.847 181.704,-283.593 181.704,-268.742"/>
<ellipse fill="none" stroke="#a419ea" cx="181.704" cy="-319.141" rx="4" ry="4"/>
<polygon fill="#a419ea" stroke="#a419ea" points="181.704,-268.716 186.204,-258.716 181.704,-263.716 181.704,-258.716 181.704,-258.716 181.704,-258.716 181.704,-263.716 177.204,-258.716 181.704,-268.716 181.704,-268.716"/>
<text text-anchor="middle" x="204.648" y="-286.8" font-family="Times,serif" font-size="14.00">prompts</text>
</g>
<!-- GameLevelCode -->
<g id="node3" class="node"><title>GameLevelCode</title>
<polygon fill="none" stroke="black" points="522.279,-523.5 522.279,-567.5 633.128,-567.5 633.128,-523.5 522.279,-523.5"/>
<text text-anchor="middle" x="577.704" y="-552.3" font-family="Times,serif" font-size="14.00">GameLevelCode</text>
<polyline fill="none" stroke="black" points="522.279,-545.5 633.128,-545.5 "/>
<text text-anchor="middle" x="577.704" y="-530.3" font-family="Times,serif" font-size="14.00"> </text>
</g>
<!-- GameOwner -->
<g id="node6" class="node"><title>GameOwner</title>
<path fill="none" stroke="black" d="M321.471,-179.5C321.471,-179.5 407.937,-179.5 407.937,-179.5 413.937,-179.5 419.937,-185.5 419.937,-191.5 419.937,-191.5 419.937,-239.5 419.937,-239.5 419.937,-245.5 413.937,-251.5 407.937,-251.5 407.937,-251.5 321.471,-251.5 321.471,-251.5 315.471,-251.5 309.471,-245.5 309.471,-239.5 309.471,-239.5 309.471,-191.5 309.471,-191.5 309.471,-185.5 315.471,-179.5 321.471,-179.5"/>
<text text-anchor="middle" x="364.704" y="-236.3" font-family="Times,serif" font-size="14.00">GameOwner</text>
<polyline fill="none" stroke="black" points="309.471,-229.5 419.937,-229.5 "/>
<text text-anchor="start" x="317.471" y="-214.3" font-family="Times,serif" font-size="14.00">id :integer</text>
<text text-anchor="start" x="317.471" y="-200.3" font-family="Times,serif" font-size="14.00">game_id :integer</text>
<text text-anchor="start" x="317.471" y="-186.3" font-family="Times,serif" font-size="14.00">user_id :integer</text>
</g>
<!-- Login -->
<g id="node7" class="node"><title>Login</title>
<polygon fill="none" stroke="black" points="650.704,-523.5 650.704,-567.5 704.704,-567.5 704.704,-523.5 650.704,-523.5"/>
<text text-anchor="middle" x="677.424" y="-552.3" font-family="Times,serif" font-size="14.00">Login</text>
<polyline fill="none" stroke="black" points="650.704,-545.5 704.145,-545.5 "/>
<text text-anchor="middle" x="677.424" y="-530.3" font-family="Times,serif" font-size="14.00"> </text>
</g>
<!-- Team -->
<g id="node8" class="node"><title>Team</title>
<path fill="none" stroke="black" d="M450.198,-165.5C450.198,-165.5 559.209,-165.5 559.209,-165.5 565.209,-165.5 571.209,-171.5 571.209,-177.5 571.209,-177.5 571.209,-253.5 571.209,-253.5 571.209,-259.5 565.209,-265.5 559.209,-265.5 559.209,-265.5 450.198,-265.5 450.198,-265.5 444.198,-265.5 438.198,-259.5 438.198,-253.5 438.198,-253.5 438.198,-177.5 438.198,-177.5 438.198,-171.5 444.198,-165.5 450.198,-165.5"/>
<text text-anchor="middle" x="504.704" y="-250.3" font-family="Times,serif" font-size="14.00">Team</text>
<polyline fill="none" stroke="black" points="438.198,-243.5 571.209,-243.5 "/>
<text text-anchor="start" x="446.198" y="-228.3" font-family="Times,serif" font-size="14.00">id :integer</text>
<text text-anchor="start" x="446.198" y="-214.3" font-family="Times,serif" font-size="14.00">owner_id :integer</text>
<text text-anchor="start" x="446.198" y="-200.3" font-family="Times,serif" font-size="14.00">name :string</text>
<text text-anchor="start" x="446.198" y="-186.3" font-family="Times,serif" font-size="14.00">created_at :datetime</text>
<text text-anchor="start" x="446.198" y="-172.3" font-family="Times,serif" font-size="14.00">updated_at :datetime</text>
</g>
<!-- Team&#45;&gt;GameLevelCompletion -->
<g id="edge10" class="edge"><title>Team&#45;&gt;GameLevelCompletion</title>
<path fill="none" stroke="#fa2e29" d="M430.413,-165.749C429.843,-165.495 429.273,-165.246 428.704,-165 341.795,-127.521 312.099,-143.046 221.704,-115 199.851,-108.22 176.572,-99.88 155.101,-91.7098"/>
<ellipse fill="none" stroke="#fa2e29" cx="434.214" cy="-167.545" rx="4.00002" ry="4.00002"/>
<ellipse fill="#fa2e29" stroke="#fa2e29" cx="151.322" cy="-90.2615" rx="4.00001" ry="4.00001"/>
</g>
<!-- Team&#45;&gt;TeamGameParticipation -->
<g id="edge9" class="edge"><title>Team&#45;&gt;TeamGameParticipation</title>
<path fill="none" stroke="#96b9f8" d="M514.439,-157.484C517.572,-148.753 521.713,-140.247 527.186,-133 532.695,-125.706 539.144,-118.971 546.15,-112.786"/>
<ellipse fill="none" stroke="#96b9f8" cx="513.173" cy="-161.385" rx="4.00001" ry="4.00001"/>
<polygon fill="#96b9f8" stroke="#96b9f8" points="546.268,-112.687 556.832,-109.747 550.11,-109.488 553.953,-106.289 553.953,-106.289 553.953,-106.289 550.11,-109.488 551.074,-102.831 546.268,-112.687 546.268,-112.687"/>
<text text-anchor="middle" x="583.462" y="-135.8" font-family="Times,serif" font-size="14.00">game_participations</text>
</g>
<!-- TeamInvitation -->
<g id="node10" class="node"><title>TeamInvitation</title>
<path fill="none" stroke="black" d="M410.198,-0.5C410.198,-0.5 519.209,-0.5 519.209,-0.5 525.209,-0.5 531.209,-6.5 531.209,-12.5 531.209,-12.5 531.209,-102.5 531.209,-102.5 531.209,-108.5 525.209,-114.5 519.209,-114.5 519.209,-114.5 410.198,-114.5 410.198,-114.5 404.198,-114.5 398.198,-108.5 398.198,-102.5 398.198,-102.5 398.198,-12.5 398.198,-12.5 398.198,-6.5 404.198,-0.5 410.198,-0.5"/>
<text text-anchor="middle" x="464.704" y="-99.3" font-family="Times,serif" font-size="14.00">TeamInvitation</text>
<polyline fill="none" stroke="black" points="398.198,-92.5 531.209,-92.5 "/>
<text text-anchor="start" x="406.198" y="-77.3" font-family="Times,serif" font-size="14.00">id :integer</text>
<text text-anchor="start" x="406.198" y="-63.3" font-family="Times,serif" font-size="14.00">user_id :integer</text>
<text text-anchor="start" x="406.198" y="-49.3" font-family="Times,serif" font-size="14.00">team_id :integer</text>
<text text-anchor="start" x="406.198" y="-35.3" font-family="Times,serif" font-size="14.00">type :integer</text>
<text text-anchor="start" x="406.198" y="-21.3" font-family="Times,serif" font-size="14.00">created_at :datetime</text>
<text text-anchor="start" x="406.198" y="-7.3" font-family="Times,serif" font-size="14.00">updated_at :datetime</text>
</g>
<!-- Team&#45;&gt;TeamInvitation -->
<g id="edge8" class="edge"><title>Team&#45;&gt;TeamInvitation</title>
<path fill="none" stroke="#9978b8" d="M472.314,-157.972C470.928,-154.325 469.704,-150.65 468.704,-147 466.775,-139.964 465.423,-132.496 464.502,-124.999"/>
<ellipse fill="none" stroke="#9978b8" cx="473.845" cy="-161.705" rx="4.00002" ry="4.00002"/>
<polygon fill="#9978b8" stroke="#9978b8" points="464.477,-124.747 467.976,-114.354 463.987,-119.771 463.497,-114.795 463.497,-114.795 463.497,-114.795 463.987,-119.771 459.019,-115.235 464.477,-124.747 464.477,-124.747"/>
</g>
<!-- TeamMember -->
<g id="node11" class="node"><title>TeamMember</title>
<path fill="none" stroke="black" d="M243.198,-0.5C243.198,-0.5 352.209,-0.5 352.209,-0.5 358.209,-0.5 364.209,-6.5 364.209,-12.5 364.209,-12.5 364.209,-102.5 364.209,-102.5 364.209,-108.5 358.209,-114.5 352.209,-114.5 352.209,-114.5 243.198,-114.5 243.198,-114.5 237.198,-114.5 231.198,-108.5 231.198,-102.5 231.198,-102.5 231.198,-12.5 231.198,-12.5 231.198,-6.5 237.198,-0.5 243.198,-0.5"/>
<text text-anchor="middle" x="297.704" y="-99.3" font-family="Times,serif" font-size="14.00">TeamMember</text>
<polyline fill="none" stroke="black" points="231.198,-92.5 364.209,-92.5 "/>
<text text-anchor="start" x="239.198" y="-77.3" font-family="Times,serif" font-size="14.00">id :integer</text>
<text text-anchor="start" x="239.198" y="-63.3" font-family="Times,serif" font-size="14.00">team_id :integer</text>
<text text-anchor="start" x="239.198" y="-49.3" font-family="Times,serif" font-size="14.00">user_id :integer</text>
<text text-anchor="start" x="239.198" y="-35.3" font-family="Times,serif" font-size="14.00">active :boolean</text>
<text text-anchor="start" x="239.198" y="-21.3" font-family="Times,serif" font-size="14.00">created_at :datetime</text>
<text text-anchor="start" x="239.198" y="-7.3" font-family="Times,serif" font-size="14.00">updated_at :datetime</text>
</g>
<!-- Team&#45;&gt;TeamMember -->
<g id="edge6" class="edge"><title>Team&#45;&gt;TeamMember</title>
<path fill="none" stroke="#f8bc1c" d="M432.967,-160.438C413.401,-145.692 392.157,-129.682 372.429,-114.815"/>
<ellipse fill="none" stroke="#f8bc1c" cx="436.297" cy="-162.947" rx="4.00002" ry="4.00002"/>
<polygon fill="#f8bc1c" stroke="#f8bc1c" points="372.355,-114.759 367.078,-105.147 368.362,-111.75 364.369,-108.741 364.369,-108.741 364.369,-108.741 368.362,-111.75 361.661,-112.335 372.355,-114.759 372.355,-114.759"/>
</g>
<!-- Team&#45;&gt;User -->
<g id="edge7" class="edge"><title>Team&#45;&gt;User</title>
<path fill="none" stroke="#b61a91" d="M444.071,-274.416C442.302,-277.533 440.723,-280.731 439.386,-284 436.514,-291.02 434.724,-298.624 433.706,-306.326"/>
<polygon fill="#b61a91" stroke="#b61a91" points="444.15,-274.292 453.316,-268.273 446.835,-270.074 449.52,-265.857 449.52,-265.857 449.52,-265.857 446.835,-270.074 445.724,-263.44 444.15,-274.292 444.15,-274.292"/>
<polygon fill="#b61a91" stroke="#b61a91" points="433.69,-306.506 428.305,-316.058 433.238,-311.485 432.786,-316.465 432.786,-316.465 432.786,-316.465 433.238,-311.485 437.268,-316.872 433.69,-306.506 433.69,-306.506"/>
<text text-anchor="middle" x="464.362" y="-286.8" font-family="Times,serif" font-size="14.00">members</text>
</g>
<!-- User&#45;&gt;Game -->
<g id="edge12" class="edge"><title>User&#45;&gt;Game</title>
<path fill="none" stroke="#df2051" d="M450.861,-440.697C451.184,-443.497 451.468,-446.274 451.704,-449 452.33,-456.231 452.343,-463.749 451.934,-471.249"/>
<polygon fill="#df2051" stroke="#df2051" points="450.826,-440.419 454.006,-429.924 450.184,-435.46 449.543,-430.501 449.543,-430.501 449.543,-430.501 450.184,-435.46 445.081,-431.078 450.826,-440.419 450.826,-440.419"/>
<polygon fill="#df2051" stroke="#df2051" points="451.916,-471.469 446.644,-481.084 451.523,-476.454 451.13,-481.438 451.13,-481.438 451.13,-481.438 451.523,-476.454 455.616,-481.792 451.916,-471.469 451.916,-471.469"/>
</g>
<!-- User&#45;&gt;GameOwner -->
<g id="edge11" class="edge"><title>User&#45;&gt;GameOwner</title>
<path fill="none" stroke="#a6a668" d="M408.488,-308.803C400.927,-292.862 392.973,-276.095 385.951,-261.291"/>
<ellipse fill="none" stroke="#a6a668" cx="410.274" cy="-312.566" rx="4.00002" ry="4.00002"/>
<polygon fill="#a6a668" stroke="#a6a668" points="385.77,-260.909 385.55,-249.946 383.627,-256.392 381.484,-251.874 381.484,-251.874 381.484,-251.874 383.627,-256.392 377.418,-253.803 385.77,-260.909 385.77,-260.909"/>
</g>
<!-- User&#45;&gt;Team -->
<g id="edge14" class="edge"><title>User&#45;&gt;Team</title>
<path fill="none" stroke="#867c2c" d="M486.53,-307.167C488.043,-304.127 489.445,-301.064 490.704,-298 493.586,-290.982 495.875,-283.389 497.693,-275.757"/>
<polygon fill="#867c2c" stroke="#867c2c" points="486.41,-307.39 477.721,-314.079 484.049,-311.797 481.687,-316.204 481.687,-316.204 481.687,-316.204 484.049,-311.797 485.654,-318.33 486.41,-307.39 486.41,-307.39"/>
<polygon fill="#867c2c" stroke="#867c2c" points="497.742,-275.528 504.223,-266.683 498.781,-270.638 499.821,-265.747 499.821,-265.747 499.821,-265.747 498.781,-270.638 495.42,-264.811 497.742,-275.528 497.742,-275.528"/>
</g>
<!-- User&#45;&gt;TeamInvitation -->
<g id="edge15" class="edge"><title>User&#45;&gt;TeamInvitation</title>
<path fill="none" stroke="#1a45c2" d="M519.852,-327.489C542.812,-310.998 565.627,-290.313 580.704,-266 609.048,-220.289 597.794,-200.561 602.704,-147 603.272,-140.804 606.394,-138.01 602.704,-133 586.695,-111.27 568.914,-126.932 544.704,-115 543.321,-114.319 541.937,-113.615 540.552,-112.891"/>
<ellipse fill="none" stroke="#1a45c2" cx="516.332" cy="-329.955" rx="4.00002" ry="4.00002"/>
<polygon fill="#1a45c2" stroke="#1a45c2" points="540.176,-112.684 533.6,-103.908 535.8,-110.265 531.423,-107.847 531.423,-107.847 531.423,-107.847 535.8,-110.265 529.247,-111.786 540.176,-112.684 540.176,-112.684"/>
</g>
<!-- User&#45;&gt;TeamMember -->
<g id="edge13" class="edge"><title>User&#45;&gt;TeamMember</title>
<path fill="none" stroke="#3c7955" d="M357.638,-328.719C335.091,-312.238 313.338,-291.248 300.704,-266 278.985,-222.601 279.292,-167.424 284.458,-124.879"/>
<ellipse fill="none" stroke="#3c7955" cx="361.068" cy="-331.154" rx="4.00002" ry="4.00002"/>
<polygon fill="#3c7955" stroke="#3c7955" points="284.466,-124.816 290.246,-115.497 285.126,-119.86 285.785,-114.903 285.785,-114.903 285.785,-114.903 285.126,-119.86 281.325,-114.31 284.466,-124.816 284.466,-124.816"/>
</g>
</g>
</svg>
