<?xml version="1.0" encoding="UTF-8" standalone="no"?>
<!DOCTYPE svg PUBLIC "-//W3C//DTD SVG 1.1//EN"
 "http://www.w3.org/Graphics/SVG/1.1/DTD/svg11.dtd">
<!-- Generated by graphviz version 2.38.0 (20140413.2041)
 -->
<!-- Title: models_diagram Pages: 1 -->
<svg width="750pt" height="302pt"
 viewBox="0.00 0.00 750.04 302.00" xmlns="http://www.w3.org/2000/svg" xmlns:xlink="http://www.w3.org/1999/xlink">
<g id="graph0" class="graph" transform="scale(1 1) rotate(0) translate(4 298)">
<title>models_diagram</title>
<polygon fill="white" stroke="none" points="-4,4 -4,-298 746.038,-298 746.038,4 -4,4"/>
<!-- Game -->
<g id="node1" class="node"><title>Game</title>
<ellipse fill="none" stroke="black" cx="427.114" cy="-276" rx="31.4462" ry="18"/>
<text text-anchor="middle" x="427.114" y="-271.8" font-family="Times,serif" font-size="14.00">Game</text>
</g>
<!-- GameLevel -->
<g id="node2" class="node"><title>GameLevel</title>
<ellipse fill="none" stroke="black" cx="202.114" cy="-190" rx="51.207" ry="18"/>
<text text-anchor="middle" x="202.114" y="-185.8" font-family="Times,serif" font-size="14.00">GameLevel</text>
</g>
<!-- Game&#45;&gt;GameLevel -->
<g id="edge3" class="edge"><title>Game&#45;&gt;GameLevel</title>
<path fill="none" stroke="#33d5b2" d="M393.759,-262.548C354.366,-247.841 288.735,-223.339 245.442,-207.176"/>
<ellipse fill="none" stroke="#33d5b2" cx="397.556" cy="-263.965" rx="4.00001" ry="4.00001"/>
<polygon fill="#33d5b2" stroke="#33d5b2" points="245.391,-207.157 237.597,-199.444 240.707,-205.408 236.023,-203.659 236.023,-203.659 236.023,-203.659 240.707,-205.408 234.449,-207.875 245.391,-207.157 245.391,-207.157"/>
<text text-anchor="middle" x="344.441" y="-228.8" font-family="Times,serif" font-size="14.00">levels</text>
</g>
<!-- TeamGameParticipation -->
<g id="node9" class="node"><title>TeamGameParticipation</title>
<ellipse fill="none" stroke="black" cx="646.114" cy="-18" rx="95.8495" ry="18"/>
<text text-anchor="middle" x="646.114" y="-13.8" font-family="Times,serif" font-size="14.00">TeamGameParticipation</text>
</g>
<!-- Game&#45;&gt;TeamGameParticipation -->
<g id="edge1" class="edge"><title>Game&#45;&gt;TeamGameParticipation</title>
<path fill="none" stroke="#e58abb" d="M452.167,-256.271C486.842,-229.423 549.946,-177.125 592.114,-122 610.411,-98.0804 625.718,-67.0684 635.308,-45.3486"/>
<ellipse fill="none" stroke="#e58abb" cx="448.798" cy="-258.858" rx="4.00002" ry="4.00002"/>
<polygon fill="#e58abb" stroke="#e58abb" points="635.344,-45.2653 643.435,-37.8632 637.323,-40.6736 639.302,-36.082 639.302,-36.082 639.302,-36.082 637.323,-40.6736 635.17,-34.3008 635.344,-45.2653 635.344,-45.2653"/>
<text text-anchor="middle" x="615.214" y="-142.8" font-family="Times,serif" font-size="14.00">participations</text>
</g>
<!-- User -->
<g id="node12" class="node"><title>User</title>
<ellipse fill="none" stroke="black" cx="427.114" cy="-190" rx="27" ry="18"/>
<text text-anchor="middle" x="427.114" y="-185.8" font-family="Times,serif" font-size="14.00">User</text>
</g>
<!-- Game&#45;&gt;User -->
<g id="edge2" class="edge"><title>Game&#45;&gt;User</title>
<path fill="none" stroke="#14c5a1" d="M406.433,-251.745C404.08,-248.027 402.04,-244.061 400.679,-240 397.656,-230.981 400.863,-221.656 405.957,-213.592"/>
<polygon fill="#14c5a1" stroke="#14c5a1" points="406.465,-251.789 408.678,-262.529 409.395,-255.841 412.325,-259.893 412.325,-259.893 412.325,-259.893 409.395,-255.841 415.971,-257.256 406.465,-251.789 406.465,-251.789"/>
<polygon fill="#14c5a1" stroke="#14c5a1" points="406.066,-213.445 415.636,-208.091 409.043,-209.428 412.02,-205.411 412.02,-205.411 412.02,-205.411 409.043,-209.428 408.405,-202.732 406.066,-213.445 406.066,-213.445"/>
<text text-anchor="middle" x="421.331" y="-228.8" font-family="Times,serif" font-size="14.00">owners</text>
</g>
<!-- GameLevelCompletion -->
<g id="node4" class="node"><title>GameLevelCompletion</title>
<ellipse fill="none" stroke="black" cx="93.1136" cy="-18" rx="93.2274" ry="18"/>
<text text-anchor="middle" x="93.1136" y="-13.8" font-family="Times,serif" font-size="14.00">GameLevelCompletion</text>
</g>
<!-- GameLevel&#45;&gt;GameLevelCompletion -->
<g id="edge5" class="edge"><title>GameLevel&#45;&gt;GameLevelCompletion</title>
<path fill="none" stroke="#cc74fd" d="M146.924,-180.645C112.052,-172.2 69.5745,-155.366 47.6791,-122 31.3252,-97.0784 50.5837,-65.2933 68.8261,-43.6683"/>
<ellipse fill="none" stroke="#cc74fd" cx="151.25" cy="-181.63" rx="4.00001" ry="4.00001"/>
<polygon fill="#cc74fd" stroke="#cc74fd" points="69.0629,-43.4008 79.0609,-38.8961 72.3772,-39.657 75.6915,-35.9133 75.6915,-35.9133 75.6915,-35.9133 72.3772,-39.657 72.3221,-32.9304 69.0629,-43.4008 69.0629,-43.4008"/>
<text text-anchor="middle" x="82.3309" y="-99.8" font-family="Times,serif" font-size="14.00">completions</text>
</g>
<!-- GameLevelPrompt -->
<g id="node5" class="node"><title>GameLevelPrompt</title>
<ellipse fill="none" stroke="black" cx="202.114" cy="-104" rx="77.2916" ry="18"/>
<text text-anchor="middle" x="202.114" y="-99.8" font-family="Times,serif" font-size="14.00">GameLevelPrompt</text>
</g>
<!-- GameLevel&#45;&gt;GameLevelPrompt -->
<g id="edge4" class="edge"><title>GameLevel&#45;&gt;GameLevelPrompt</title>
<path fill="none" stroke="#226909" d="M202.114,-163.257C202.114,-153.441 202.114,-142.226 202.114,-132.273"/>
<ellipse fill="none" stroke="#226909" cx="202.114" cy="-167.595" rx="4" ry="4"/>
<polygon fill="#226909" stroke="#226909" points="202.114,-132.095 206.614,-122.095 202.114,-127.095 202.114,-122.095 202.114,-122.095 202.114,-122.095 202.114,-127.095 197.614,-122.095 202.114,-132.095 202.114,-132.095"/>
<text text-anchor="middle" x="225.058" y="-142.8" font-family="Times,serif" font-size="14.00">prompts</text>
</g>
<!-- GameLevelCode -->
<g id="node3" class="node"><title>GameLevelCode</title>
<polygon fill="none" stroke="black" points="587.462,-294 476.765,-294 476.765,-258 587.462,-258 587.462,-294"/>
<text text-anchor="middle" x="532.114" y="-271.8" font-family="Times,serif" font-size="14.00">GameLevelCode</text>
</g>
<!-- GameOwner -->
<g id="node6" class="node"><title>GameOwner</title>
<ellipse fill="none" stroke="black" cx="390.114" cy="-104" rx="55.075" ry="18"/>
<text text-anchor="middle" x="390.114" y="-99.8" font-family="Times,serif" font-size="14.00">GameOwner</text>
</g>
<!-- Login -->
<g id="node7" class="node"><title>Login</title>
<polygon fill="none" stroke="black" points="659.114,-294 605.114,-294 605.114,-258 659.114,-258 659.114,-294"/>
<text text-anchor="middle" x="632.114" y="-271.8" font-family="Times,serif" font-size="14.00">Login</text>
</g>
<!-- Team -->
<g id="node8" class="node"><title>Team</title>
<ellipse fill="none" stroke="black" cx="493.114" cy="-104" rx="29.7411" ry="18"/>
<text text-anchor="middle" x="493.114" y="-99.8" font-family="Times,serif" font-size="14.00">Team</text>
</g>
<!-- Team&#45;&gt;GameLevelCompletion -->
<g id="edge10" class="edge"><title>Team&#45;&gt;GameLevelCompletion</title>
<path fill="none" stroke="#709f9f" d="M462.786,-88.9944C459.887,-87.8944 456.965,-86.8736 454.114,-86 361.79,-57.7152 252.328,-39.4448 178.335,-29.2409"/>
<ellipse fill="none" stroke="#709f9f" cx="466.636" cy="-90.5474" rx="4.00001" ry="4.00001"/>
<ellipse fill="#709f9f" stroke="#709f9f" cx="174.354" cy="-28.698" rx="4.00001" ry="4.00001"/>
</g>
<!-- Team&#45;&gt;TeamGameParticipation -->
<g id="edge9" class="edge"><title>Team&#45;&gt;TeamGameParticipation</title>
<path fill="none" stroke="#eb957c" d="M505.86,-79.8918C511.968,-70.6787 520.045,-60.6939 529.596,-54 541.612,-45.5787 555.686,-39.1505 569.817,-34.2538"/>
<ellipse fill="none" stroke="#eb957c" cx="503.706" cy="-83.3299" rx="4.00002" ry="4.00002"/>
<polygon fill="#eb957c" stroke="#eb957c" points="570.068,-34.1731 580.967,-35.3856 574.827,-32.638 579.585,-31.1029 579.585,-31.1029 579.585,-31.1029 574.827,-32.638 578.203,-26.8202 570.068,-34.1731 570.068,-34.1731"/>
<text text-anchor="middle" x="585.872" y="-56.8" font-family="Times,serif" font-size="14.00">game_participations</text>
</g>
<!-- TeamInvitation -->
<g id="node10" class="node"><title>TeamInvitation</title>
<ellipse fill="none" stroke="black" cx="465.114" cy="-18" rx="64.0107" ry="18"/>
<text text-anchor="middle" x="465.114" y="-13.8" font-family="Times,serif" font-size="14.00">TeamInvitation</text>
</g>
<!-- Team&#45;&gt;TeamInvitation -->
<g id="edge8" class="edge"><title>Team&#45;&gt;TeamInvitation</title>
<path fill="none" stroke="#a9a67e" d="M476.982,-80.4842C474.696,-76.4757 472.616,-72.2266 471.114,-68 468.684,-61.1635 467.205,-53.4902 466.314,-46.281"/>
<ellipse fill="none" stroke="#a9a67e" cx="479.139" cy="-83.9791" rx="4.00002" ry="4.00002"/>
<polygon fill="#a9a67e" stroke="#a9a67e" points="466.303,-46.1603 469.867,-35.79 465.844,-41.1814 465.386,-36.2024 465.386,-36.2024 465.386,-36.2024 465.844,-41.1814 460.905,-36.6148 466.303,-46.1603 466.303,-46.1603"/>
</g>
<!-- TeamMember -->
<g id="node11" class="node"><title>TeamMember</title>
<ellipse fill="none" stroke="black" cx="318.114" cy="-18" rx="59.6587" ry="18"/>
<text text-anchor="middle" x="318.114" y="-13.8" font-family="Times,serif" font-size="14.00">TeamMember</text>
</g>
<!-- Team&#45;&gt;TeamMember -->
<g id="edge6" class="edge"><title>Team&#45;&gt;TeamMember</title>
<path fill="none" stroke="#8db08b" d="M463.271,-88.6756C434.134,-74.6896 389.623,-53.3245 357.574,-37.9408"/>
<ellipse fill="none" stroke="#8db08b" cx="466.988" cy="-90.4595" rx="4.00002" ry="4.00002"/>
<polygon fill="#8db08b" stroke="#8db08b" points="357.489,-37.9002 350.421,-29.516 352.981,-35.7365 348.474,-33.5728 348.474,-33.5728 348.474,-33.5728 352.981,-35.7365 346.526,-37.6297 357.489,-37.9002 357.489,-37.9002"/>
</g>
<!-- Team&#45;&gt;User -->
<g id="edge7" class="edge"><title>Team&#45;&gt;User</title>
<path fill="none" stroke="#d7c4bc" d="M461.403,-120.19C445.815,-127.974 429.906,-136.531 427.796,-140 423.89,-146.423 422.599,-154.249 422.583,-161.745"/>
<polygon fill="#d7c4bc" stroke="#d7c4bc" points="461.466,-120.159 472.425,-119.777 465.951,-117.949 470.436,-115.74 470.436,-115.74 470.436,-115.74 465.951,-117.949 468.448,-111.703 461.466,-120.159 461.466,-120.159"/>
<polygon fill="#d7c4bc" stroke="#d7c4bc" points="422.598,-161.964 418.78,-172.244 422.934,-166.953 423.27,-171.942 423.27,-171.942 423.27,-171.942 422.934,-166.953 427.76,-171.639 422.598,-161.964 422.598,-161.964"/>
<text text-anchor="middle" x="453.772" y="-142.8" font-family="Times,serif" font-size="14.00">members</text>
</g>
<!-- User&#45;&gt;Game -->
<g id="edge12" class="edge"><title>User&#45;&gt;Game</title>
<path fill="none" stroke="#c3453a" d="M438.679,-216.764C439.675,-219.827 440.526,-222.949 441.114,-226 442.563,-233.526 441.428,-241.569 439.293,-248.918"/>
<polygon fill="#c3453a" stroke="#c3453a" points="438.657,-216.705 439.357,-205.762 436.9,-212.024 435.144,-207.343 435.144,-207.343 435.144,-207.343 436.9,-212.024 430.93,-208.924 438.657,-216.705 438.657,-216.705"/>
<polygon fill="#c3453a" stroke="#c3453a" points="439.272,-248.977 431.671,-256.881 437.59,-253.686 435.909,-258.394 435.909,-258.394 435.909,-258.394 437.59,-253.686 440.146,-259.908 439.272,-248.977 439.272,-248.977"/>
</g>
<!-- User&#45;&gt;GameOwner -->
<g id="edge11" class="edge"><title>User&#45;&gt;GameOwner</title>
<path fill="none" stroke="#0a0438" d="M411.748,-166.47C409.337,-162.419 407.017,-158.161 405.114,-154 401.944,-147.072 399.216,-139.295 396.989,-132.013"/>
<ellipse fill="none" stroke="#0a0438" cx="413.997" cy="-170.075" rx="4.00002" ry="4.00002"/>
<polygon fill="#0a0438" stroke="#0a0438" points="396.929,-131.803 398.508,-120.952 395.555,-126.996 394.181,-122.188 394.181,-122.188 394.181,-122.188 395.555,-126.996 389.854,-123.425 396.929,-131.803 396.929,-131.803"/>
</g>
<!-- User&#45;&gt;Team -->
<g id="edge14" class="edge"><title>User&#45;&gt;Team</title>
<path fill="none" stroke="#db39ac" d="M457.399,-173.727C465.426,-168.432 473.43,-161.823 479.114,-154 483.762,-147.603 486.87,-139.7 488.949,-132.123"/>
<polygon fill="#db39ac" stroke="#db39ac" points="457.336,-173.765 446.453,-175.106 453.062,-176.359 448.787,-178.953 448.787,-178.953 448.787,-178.953 453.062,-176.359 451.122,-182.8 457.336,-173.765 457.336,-173.765"/>
<polygon fill="#db39ac" stroke="#db39ac" points="488.994,-131.919 495.581,-123.152 490.093,-127.041 491.191,-122.164 491.191,-122.164 491.191,-122.164 490.093,-127.041 486.801,-121.175 488.994,-131.919 488.994,-131.919"/>
</g>
<!-- User&#45;&gt;TeamInvitation -->
<g id="edge15" class="edge"><title>User&#45;&gt;TeamInvitation</title>
<path fill="none" stroke="#56baa9" d="M458.591,-178.795C501.439,-162.941 576.111,-127.826 605.114,-68 607.828,-62.401 608.943,-58.9044 605.114,-54 603.743,-52.2439 560.647,-41.6279 522.632,-32.5431"/>
<ellipse fill="none" stroke="#56baa9" cx="454.742" cy="-180.179" rx="4.00001" ry="4.00001"/>
<polygon fill="#56baa9" stroke="#56baa9" points="522.324,-32.4697 513.639,-25.7742 517.46,-31.3107 512.596,-30.1517 512.596,-30.1517 512.596,-30.1517 517.46,-31.3107 511.553,-34.5291 522.324,-32.4697 522.324,-32.4697"/>
</g>
<!-- User&#45;&gt;TeamMember -->
<g id="edge13" class="edge"><title>User&#45;&gt;TeamMember</title>
<path fill="none" stroke="#a17a7a" d="M396.338,-177.426C372.796,-166.821 341.794,-148.683 326.114,-122 312.603,-99.0103 312.087,-67.9843 314.029,-46.0099"/>
<ellipse fill="none" stroke="#a17a7a" cx="400.019" cy="-179.018" rx="4.00002" ry="4.00002"/>
<polygon fill="#a17a7a" stroke="#a17a7a" points="314.034,-45.9639 319.606,-36.5193 314.584,-40.9942 315.134,-36.0245 315.134,-36.0245 315.134,-36.0245 314.584,-40.9942 310.661,-35.5297 314.034,-45.9639 314.034,-45.9639"/>
</g>
</g>
</svg>
